<?xml version="1.0" encoding="UTF-8"?>
<svg version="1.1" viewBox="0 0 4096 4096" xml:space="preserve" xmlns="http://www.w3.org/2000/svg"><title>Sdl3Sharp - Icon</title><path transform="matrix(21.47 0 0 21.47 326.6 -21059)" d="m76.34 1137c-0.4178 0.2411-0.8816 0.5087-1.374 0.7925s-1.012 0.5822-1.484 0.8528c-0.4727 0.2707-0.89 0.5082-1.294 0.7361-0.4041 0.228-0.8188 0.46-1.275 0.7131s-0.9413 0.5193-1.406 0.7693c-0.4645 0.2499-0.9103 0.4844-1.365 0.7181-0.4551 0.2336-0.9243 0.469-1.404 0.7024-0.9603 0.4667-1.933 0.9076-2.952 1.32s-2.077 0.7924-3.184 1.118c-1.108 0.3259-2.266 0.5972-3.466 0.7846-1.2 0.1875-2.442 0.2893-3.685 0.2893-1.243 0-2.485-0.1018-3.685-0.2892-1.2-0.1875-2.359-0.4587-3.466-0.7843s-2.17-0.7087-3.185-1.119c-0.5072-0.2049-1.004-0.4178-1.497-0.6391-0.4925-0.2212-0.9808-0.4508-1.459-0.6832-0.4784-0.2323-0.9429-0.4651-1.397-0.6982-0.4543-0.2332-0.9031-0.4695-1.37-0.7206-0.4666-0.2512-0.9516-0.5176-1.406-0.7696-0.4547-0.252-0.8668-0.4825-1.271-0.7105-0.4041-0.2279-0.8237-0.4668-1.298-0.7383-0.4742-0.2714-0.9933-0.57-1.486-0.8536-0.4923-0.2835-0.9554-0.5507-1.373-0.7915s-0.7888-0.4553-1.161-0.6702c-0.2542-0.1468-0.5066-0.2925-0.7754-0.4477s-0.5538-0.3198-0.8593-0.4963c-0.3055-0.1765-0.6314-0.3649-0.9681-0.5597-0.3367-0.1949-0.6842-0.3962-1.019-0.5906-0.3348-0.1945-0.6534-0.38-0.9477-0.5521-0.2942-0.1722-0.5642-0.331-0.8334-0.4903-0.2692-0.1594-0.5419-0.3217-0.8313-0.495-0.2893-0.1733-0.595-0.3573-0.9015-0.5436s-0.611-0.3732-0.9038-0.5555c-0.2928-0.1824-0.5741-0.3604-0.8511-0.5387-0.5541-0.3567-1.104-0.7223-1.651-1.102-0.5468-0.38-1.078-0.7675-1.58-1.161-0.5014-0.3935-0.9786-0.7961-1.427-1.213-0.8962-0.8345-1.657-1.718-2.168-2.653-0.5105-0.9348-0.7541-1.92-0.6645-2.898s0.5079-1.942 1.15-2.849c0.6426-0.907 1.499-1.76 2.462-2.568 0.06968-0.066 0.1394-0.1307 0.198-0.1997 0.06102-0.072 0.1101-0.1474 0.1513-0.2264 0.04358-0.083 0.07827-0.1692 0.1049-0.2592 0.03729-0.1256 0.05864-0.2576 0.06574-0.396 0.0073-0.1423-4.3e-4 -0.2915-0.02071-0.4476-0.02032-0.1564-0.05323-0.3198-0.09852-0.4893-0.04407-0.1649-0.09986-0.3356-0.1667-0.5114-0.1344-0.3536-0.3135-0.7282-0.5206-1.086-0.2067-0.3574-0.4414-0.6983-0.68-0.99-0.1184-0.1448-0.2378-0.2774-0.358-0.3972-0.1236-0.123-0.248-0.2324-0.3727-0.3274-0.125-0.095-0.2502-0.1769-0.3771-0.2409-0.1234-0.062-0.2484-0.1093-0.3757-0.1403-0.06842-0.016-0.1375-0.024-0.2077-0.034h-0.204c-0.06648 0-0.1339 0.013-0.2025 0.029-0.06682 0.015-0.1347 0.037-0.2027 0.059-1.176 0.427-2.348 0.745-3.454 0.8477-1.107 0.1028-2.151-0.017-3.043-0.4287-0.8923-0.4118-1.624-1.116-2.178-2.025-0.5543-0.9092-0.939-2.012-1.214-3.202-0.1373-0.5953-0.2474-1.215-0.3375-1.847-0.09003-0.6323-0.16-1.276-0.2157-1.94s-0.0972-1.333-0.1291-1.99c-0.01593-0.3289-0.02944-0.6595-0.041-1.002-0.01156-0.3429-0.02118-0.6986-0.02928-1.057-0.00809-0.3585-0.01466-0.7169-0.02008-1.056-0.00541-0.3388-0.00967-0.6578-0.01308-0.971-0.00341-0.3132-0.00597-0.6253-0.00794-0.965-0.00197-0.3396-0.00335-0.7069-0.00435-1.093-1e-3 -0.3864-0.00162-0.788-0.00204-1.177-4.19e-4 -0.3894-6.32e-4 -0.7664-7.58e-4 -1.12-1.26e-4 -0.3533-1.65e-4 -0.6829-1.86e-4 -0.9935-2e-5 -0.3105-2.1e-5 -0.6021-2.3e-5 -0.8956-2e-6 -0.43-1e-5 -0.8592 6.8e-5 -1.342 7.7e-5 -0.4824 2.38e-4 -1.018 8.1e-4 -1.587 5.8e-4 -0.5687 0.00156-1.167 0.00351-1.712s0.00488-1.025 0.00953-1.489 0.01103-0.9392 0.02012-1.461c0.00909-0.5221 0.02089-1.075 0.03666-1.602 0.01577-0.5273 0.0355-1.031 0.0607-1.542 0.0252-0.511 0.05587-1.035 0.09382-1.568 0.0759-1.065 0.1805-2.128 0.3327-3.216 0.1522-1.088 0.352-2.195 0.6235-3.317s0.6158-2.261 1.054-3.394c0.4377-1.133 0.9703-2.259 1.592-3.336s1.331-2.101 2.093-3.047c0.7624-0.9456 1.577-1.813 2.412-2.609 0.8355-0.7958 1.699-1.525 2.561-2.198 0.4311-0.3368 0.864-0.6607 1.302-0.9766s0.8809-0.6239 1.321-0.922c0.4404-0.298 0.8743-0.5839 1.303-0.8607 0.4291-0.2768 0.8581-0.5473 1.309-0.8258 0.4509-0.2785 0.924-0.5652 1.37-0.833s0.8514-0.5094 1.251-0.7454c0.3995-0.2359 0.8162-0.4799 1.288-0.7547 0.4722-0.2749 0.9904-0.5752 1.482-0.8597 0.4918-0.2846 0.9547-0.552 1.372-0.793 0.4172-0.2409 0.7888-0.4554 1.161-0.6703 0.3724-0.215 0.7439-0.4295 1.161-0.6702 0.4172-0.2408 0.8802-0.5079 1.372-0.7911 0.4918-0.2832 1.01-0.5812 1.482-0.8516s0.8889-0.5075 1.288-0.7328c0.3995-0.2252 0.8052-0.4521 1.251-0.6988 0.4457-0.2468 0.9188-0.5063 1.37-0.7484 0.4509-0.2421 0.8799-0.467 1.309-0.6856s0.8629-0.4336 1.303-0.6441c0.4404-0.2104 0.8835-0.4139 1.321-0.6036 0.4379-0.1896 0.8708-0.3655 1.302-0.5265 0.8622-0.3221 1.726-0.5898 2.561-0.7586 0.8355-0.1659 1.65-0.2409 2.412-0.1759 0.7624 0.065 1.471 0.2712 2.093 0.6302 0.6216 0.359 1.154 0.8701 1.592 1.498s0.782 1.369 1.054 2.178c0.2715 0.8088 0.4713 1.685 0.6235 2.597 0.1522 0.9124 0.2568 1.855 0.3327 2.832 0.03794 0.4887 0.06861 0.9774 0.09381 1.459 0.0252 0.4819 0.04493 0.9625 0.0607 1.472 0.01577 0.5091 0.02756 1.048 0.03666 1.56 0.0091 0.5115 0.01542 0.9793 0.02012 1.438 0.0046 0.4586 0.0075 0.9354 0.0095 1.478 0.0019 0.5425 0.0029 1.14 0.0035 1.708 5.72e-4 0.5679 7.34e-4 1.103 8.11e-4 1.586s7e-5 0.9115-3e-6 1.341c-7.3e-5 0.2935-7.5e-5 0.5851-9.5e-5 0.8957s-6e-5 0.6402-1.86e-4 0.9937c-1.26e-4 0.3534-3.39e-4 0.7306-7.57e-4 1.12-4e-4 0.3899-1e-3 0.7922-2e-3 1.18s-0.0023 0.7565-0.0043 1.098c-0.0019 0.3419-0.0045 0.657-0.0079 0.9742-0.0034 0.3171-0.0077 0.6409-0.01308 0.986-0.0054 0.3452-0.01197 0.7111-0.02007 1.079s-0.01771 0.7347-0.02927 1.091-0.02507 0.7025-0.041 1.05c-0.03186 0.6947-0.07334 1.411-0.1291 2.14-0.05572 0.7283-0.1257 1.453-0.2157 2.189-0.09003 0.7363-0.2002 1.483-0.3375 2.237-0.2746 1.508-0.6593 3.054-1.214 4.604-0.5543 1.549-1.286 3.098-2.178 4.54-0.8923 1.442-1.937 2.767-3.043 3.942-1.107 1.175-2.278 2.21-3.454 3.14-0.06784 0.057-0.1357 0.1131-0.2019 0.1746-0.06796 0.063-0.1342 0.1313-0.1985 0.2026-0.06675 0.074-0.1314 0.1513-0.1935 0.2316-0.06499 0.084-0.1271 0.1714-0.1863 0.2614-0.11 0.1675-0.2096 0.3442-0.2957 0.5278-0.08853 0.1889-0.1629 0.3851-0.2212 0.5863-0.05819 0.2007-0.1005 0.4063-0.1236 0.614-0.02254 0.2021-0.02698 0.4063-0.01041 0.6098 0.0334 0.4102 0.1521 0.8181 0.3576 1.176 0.2059 0.3588 0.499 0.6676 0.8374 0.9034 0.1683 0.1173 0.3479 0.2165 0.5349 0.2989 0.1922 0.085 0.3923 0.1516 0.5961 0.202 0.2035 0.05 0.4106 0.084 0.6185 0.1025 0.2023 0.018 0.4053 0.02 0.6054 0.01 0.1427-0.01 0.284-0.023 0.4229-0.045 0.1311-0.021 0.2601-0.048 0.3829-0.082 0.118-0.033 0.2302-0.073 0.3425-0.1134 1.497-0.5946 3.084-1.119 4.778-1.497 1.694-0.3777 3.501-0.599 5.317-0.599s3.623 0.2211 5.317 0.599c1.695 0.3779 3.286 0.9054 4.778 1.497 0.1123 0.04 0.2245 0.08 0.3425 0.1133 0.1228 0.034 0.2518 0.061 0.3829 0.082 0.1389 0.022 0.2802 0.035 0.4229 0.045 0.2002 0.01 0.4032 0.01 0.6054-0.01 0.2079-0.018 0.4151-0.052 0.6185-0.1024 0.2038-0.05 0.4039-0.117 0.5961-0.202 0.187-0.082 0.3666-0.1817 0.5349-0.299 0.3384-0.2357 0.6315-0.5446 0.8374-0.9034 0.2055-0.358 0.3243-0.7659 0.3577-1.176 0.01658-0.2036 0.01214-0.4077-0.0104-0.6099-0.02316-0.2077-0.06544-0.4133-0.1236-0.6139-0.05835-0.2013-0.1327-0.3975-0.2212-0.5864-0.08611-0.1836-0.1856-0.3603-0.2957-0.5278-0.05913-0.09-0.1213-0.1774-0.1863-0.2614-0.06209-0.08-0.1268-0.1576-0.1935-0.2316-0.06432-0.071-0.1306-0.1396-0.1985-0.2026-0.06622-0.062-0.1341-0.1176-0.202-0.1746-1.176-0.9309-2.348-1.965-3.454-3.14-1.107-1.175-2.151-2.5-3.043-3.942-0.8923-1.442-1.624-2.991-2.178-4.54-0.5543-1.549-0.939-3.096-1.214-4.604-0.1373-0.7539-0.2474-1.5-0.3375-2.237-0.09003-0.7362-0.16-1.461-0.2157-2.189-0.05572-0.7284-0.0972-1.445-0.1291-2.14-0.01593-0.3473-0.02944-0.6935-0.041-1.05-0.01157-0.3563-0.02118-0.7231-0.02928-1.091s-0.01467-0.7338-0.02007-1.079c-0.0054-0.3451-0.0097-0.6689-0.01308-0.986-0.0034-0.3172-0.0059-0.6323-0.0079-0.9742-0.0019-0.3419-0.0033-0.7108-0.0043-1.098s-0.0016-0.7899-2e-3 -1.18c-4.19e-4 -0.3898-6.32e-4 -0.767-7.58e-4 -1.12-1.26e-4 -0.3535-1.65e-4 -0.6831-1.85e-4 -0.9937-2.1e-5 -0.3106-2.2e-5 -0.6022-5e-6 -0.8957 1.8e-5 -0.4299 1.1e-5 -0.8591 8.8e-5 -1.341s2.39e-4 -1.018 8.1e-4 -1.586c6e-4 -0.568 0.0015-1.166 0.0035-1.708 0.0019-0.5425 0.0048-1.019 0.0095-1.478 0.0047-0.4587 0.01102-0.9265 0.02012-1.438 0.0091-0.5116 0.02089-1.051 0.03666-1.56 0.01576-0.509 0.0355-0.9896 0.0607-1.472 0.02521-0.4818 0.05587-0.9705 0.09382-1.459 0.0759-0.9775 0.1805-1.92 0.3327-2.832 0.1521-0.9123 0.352-1.788 0.6235-2.597 0.2715-0.8089 0.6158-1.55 1.054-2.178 0.4377-0.6278 0.9703-1.139 1.592-1.498 0.6216-0.359 1.331-0.5652 2.093-0.6302s1.577 0.01 2.412 0.1759c0.8355 0.1688 1.699 0.4365 2.561 0.7586 0.4311 0.161 0.864 0.3369 1.302 0.5265 0.4379 0.1897 0.8809 0.3932 1.321 0.6036 0.4404 0.2105 0.8743 0.4255 1.303 0.6441s0.8581 0.4435 1.309 0.6856 0.924 0.5016 1.37 0.7484c0.4457 0.2467 0.8514 0.4736 1.251 0.6988 0.3995 0.2253 0.8162 0.4624 1.288 0.7328s0.9904 0.5684 1.482 0.8516 0.9547 0.5503 1.372 0.7911c0.4172 0.2407 0.7888 0.4552 1.161 0.6702 0.2542 0.1467 0.5066 0.2924 0.7754 0.4476 0.2688 0.1552 0.5538 0.3198 0.8595 0.4964 0.3056 0.1766 0.6318 0.3651 0.9689 0.5602s0.6852 0.3968 1.021 0.5918c0.3358 0.195 0.6558 0.3813 0.952 0.5546s0.5687 0.3335 0.8414 0.4949c0.2726 0.1613 0.5496 0.3261 0.8443 0.5025s0.607 0.3642 0.9216 0.5552c0.3146 0.191 0.6287 0.3834 0.9331 0.5724 0.3043 0.1891 0.5992 0.3749 0.8921 0.5624 0.586 0.3751 1.178 0.7646 1.78 1.177 0.6025 0.4122 1.204 0.8401 1.795 1.286 0.5915 0.4455 1.179 0.9117 1.764 1.408 1.171 0.9931 2.317 2.099 3.381 3.354 1.065 1.255 2.04 2.662 2.843 4.156 0.8027 1.494 1.428 3.06 1.893 4.606 0.4642 1.546 0.7745 3.072 0.9927 4.562 0.0213 0.1173 0.0426 0.2346 0.0729 0.3534 0.0315 0.1235 0.0728 0.2487 0.1203 0.3726 0.0503 0.1314 0.1077 0.2614 0.172 0.3891 0.0901 0.1792 0.1937 0.3538 0.3101 0.5203 0.1196 0.1711 0.2526 0.3336 0.398 0.4846 0.1456 0.1514 0.3036 0.2913 0.473 0.4154 0.1649 0.1209 0.3406 0.227 0.5264 0.314 0.3735 0.1756 0.7876 0.2736 1.201 0.2736 0.413-1e-3 0.8256-0.1022 1.198-0.2785 0.1846-0.087 0.3592-0.1934 0.523-0.314 0.1683-0.124 0.3252-0.2635 0.4699-0.4143 0.1451-0.1512 0.2779-0.3138 0.3972-0.485 0.116-0.1665 0.2192-0.341 0.3092-0.5202 0.0484-0.096 0.0929-0.1941 0.1332-0.2921 0.0385-0.094 0.073-0.1884 0.1037-0.2834 0.0295-0.091 0.0555-0.1833 0.0761-0.2733 0.02-0.088 0.0351-0.1752 0.0501-0.2622 0.2334-1.594 0.5724-3.231 1.092-4.887 0.5201-1.656 1.232-3.332 2.14-4.904 0.9081-1.573 2.003-3.027 3.178-4.305 1.175-1.279 2.427-2.393 3.686-3.39 0.0678-0.057 0.1357-0.1131 0.2019-0.1746 0.068-0.063 0.1342-0.1313 0.1985-0.2026 0.0667-0.074 0.1314-0.1512 0.1935-0.2315 0.065-0.084 0.1272-0.1714 0.1863-0.2615 0.11-0.1675 0.2096-0.3441 0.2957-0.5278 0.0885-0.1888 0.1629-0.3851 0.2212-0.5863 0.0582-0.2007 0.1005-0.4063 0.1236-0.614 0.0225-0.2021 0.027-0.4062 0.0104-0.6098-0.0334-0.4102-0.1521-0.8181-0.3576-1.176-0.2059-0.3588-0.499-0.6676-0.8374-0.9034-0.1683-0.1173-0.3479-0.2166-0.5349-0.299-0.1922-0.085-0.3923-0.1516-0.5961-0.202-0.2034-0.05-0.4106-0.084-0.6185-0.1024-0.2023-0.018-0.4052-0.02-0.6054-0.01-0.1427 0.01-0.284 0.023-0.4229 0.045-0.1311 0.021-0.2601 0.048-0.3829 0.082-0.118 0.033-0.2302 0.073-0.3425 0.1134-1.399 0.5557-2.876 1.05-4.447 1.421-1.571 0.371-3.241 0.6122-4.936 0.6642s-3.401-0.089-5.021-0.3837c-1.619-0.2946-3.15-0.7339-4.595-1.251-0.7228-0.2587-1.42-0.5341-2.102-0.8236-0.6815-0.2894-1.353-0.5962-2.011-0.9119-0.6582-0.3156-1.291-0.6333-1.909-0.9532-0.3089-0.1599-0.6172-0.3223-0.9332-0.4913-0.3159-0.1691-0.6396-0.3448-0.9623-0.5218-0.3227-0.1769-0.6415-0.3534-0.9417-0.5204-0.3001-0.167-0.5814-0.3245-0.8574-0.4799-0.276-0.1554-0.5511-0.3113-0.8493-0.4811-0.2982-0.1699-0.6196-0.3538-0.9564-0.5471s-0.6855-0.3938-1.023-0.5882c-0.3376-0.1944-0.6639-0.3826-0.9697-0.5589-0.3057-0.1764-0.5909-0.3409-0.8596-0.4961-0.2688-0.1551-0.5213-0.3009-0.7754-0.4476-0.3724-0.2149-0.7439-0.4294-1.161-0.6703-0.4172-0.2409-0.88-0.5083-1.371-0.7925-0.4912-0.2842-1.008-0.5839-1.479-0.8576-0.4703-0.2738-0.884-0.516-1.279-0.7493s-0.7942-0.4712-1.231-0.7337c-0.4366-0.2626-0.8979-0.5425-1.333-0.8119-0.4351-0.2694-0.8444-0.5285-1.248-0.7907-0.4039-0.2623-0.8071-0.5304-1.21-0.8066-0.4025-0.2762-0.8003-0.558-1.183-0.8424-0.3832-0.2843-0.752-0.5712-1.107-0.864-0.7101-0.5856-1.374-1.199-1.938-1.838-0.564-0.6391-1.034-1.308-1.359-2.001s-0.501-1.41-0.501-2.127c-3e-6 -0.7177 0.1763-1.434 0.5011-2.127 0.3248-0.6928 0.7945-1.362 1.359-2.001 0.5647-0.6395 1.223-1.25 1.937-1.838 0.714-0.5879 1.478-1.15 2.286-1.704 0.4043-0.2772 0.8121-0.5481 1.217-0.8108 0.4047-0.2627 0.811-0.52 1.244-0.7882 0.433-0.2681 0.8941-0.548 1.333-0.8116 0.4384-0.2636 0.8404-0.503 1.235-0.7363s0.8063-0.4742 1.275-0.7471c0.4688-0.2729 0.9857-0.5724 1.477-0.8569 0.4916-0.2844 0.9551-0.5522 1.373-0.7933 0.4176-0.2412 0.7893-0.4558 1.162-0.6707 0.3724-0.215 0.744-0.4295 1.162-0.6706s0.8816-0.5087 1.374-0.7925c0.4927-0.2837 1.012-0.5821 1.484-0.8528 0.4727-0.2707 0.89-0.5082 1.294-0.7361s0.8188-0.46 1.275-0.7131 0.9413-0.5193 1.406-0.7692c0.4645-0.25 0.9103-0.4845 1.365-0.7181 0.4551-0.2336 0.9243-0.4691 1.404-0.7025 0.9603-0.4667 1.933-0.9076 2.952-1.32 1.018-0.4121 2.077-0.7924 3.184-1.118 1.108-0.326 2.266-0.5972 3.466-0.7847s2.442-0.2893 3.685-0.2893 2.485 0.1018 3.685 0.2892c1.2 0.1875 2.359 0.4587 3.466 0.7843s2.17 0.7087 3.185 1.119c0.5072 0.205 1.004 0.4179 1.497 0.6391s0.9808 0.4509 1.459 0.6832c0.4784 0.2323 0.9429 0.4651 1.397 0.6983 0.4543 0.2331 0.9031 0.4694 1.37 0.7206 0.4666 0.2511 0.9516 0.5175 1.406 0.7695s0.8668 0.4826 1.271 0.7105c0.4041 0.2279 0.8237 0.4668 1.298 0.7383s0.9933 0.57 1.486 0.8536c0.4923 0.2835 0.9554 0.5507 1.373 0.7915 0.4173 0.2409 0.7888 0.4553 1.161 0.6703 0.2542 0.1467 0.5066 0.2925 0.7754 0.4476 0.2688 0.1552 0.5538 0.3198 0.8593 0.4963s0.6314 0.3649 0.9681 0.5598c0.3367 0.1948 0.6842 0.3961 1.019 0.5906 0.3348 0.1944 0.6534 0.3799 0.9477 0.5521 0.2942 0.1721 0.5642 0.3309 0.8334 0.4902 0.2692 0.1594 0.5419 0.3218 0.8312 0.495 0.2893 0.1733 0.595 0.3573 0.9015 0.5436 0.3065 0.1863 0.611 0.3732 0.9038 0.5556 0.2928 0.1823 0.5741 0.3603 0.8511 0.5387 0.5541 0.3566 1.104 0.7222 1.651 1.102s1.078 0.7675 1.58 1.161c0.5014 0.3934 0.9786 0.796 1.427 1.213 0.8962 0.8345 1.657 1.718 2.168 2.653 0.5105 0.9348 0.7541 1.92 0.6645 2.898s-0.5079 1.942-1.15 2.849c-0.6426 0.9069-1.499 1.76-2.462 2.567-0.0529 0.048-0.1057 0.096-0.1524 0.146-0.0479 0.052-0.0894 0.1055-0.1263 0.1609-0.0383 0.058-0.0717 0.1167-0.1002 0.1777-0.0299 0.064-0.0544 0.1293-0.0744 0.1968-0.0373 0.1255-0.059 0.2572-0.0664 0.3954-8e-3 0.1421-5e-5 0.2911 0.02 0.447 0.02 0.1555 0.0525 0.318 0.0972 0.4865 0.0435 0.164 0.0987 0.3337 0.1649 0.5086 0.1333 0.3525 0.3112 0.7262 0.5174 1.084 0.2065 0.3585 0.4414 0.7009 0.6804 0.9941 0.1189 0.1458 0.2388 0.2795 0.3596 0.4001 0.1242 0.124 0.2492 0.2342 0.3745 0.33 0.1251 0.096 0.2504 0.1769 0.3772 0.2418 0.1234 0.063 0.2484 0.1106 0.3759 0.1411 0.0909 0.022 0.183 0.035 0.277 0.039 0.0887 0 0.1791-7e-4 0.2717-0.018 0.089-0.016 0.18-0.044 0.2712-0.072 1.176-0.4271 2.348-0.745 3.454-0.8478 1.107-0.1028 2.151 0.017 3.043 0.4287 0.8922 0.4119 1.624 1.116 2.178 2.025 0.5543 0.9093 0.939 2.012 1.214 3.202 0.1373 0.5953 0.2475 1.215 0.3375 1.847s0.16 1.276 0.2157 1.94c0.0558 0.664 0.0972 1.333 0.1291 1.99 0.0159 0.3289 0.0294 0.6595 0.041 1.002 0.0116 0.3429 0.0213 0.6985 0.0293 1.057s0.0151 0.717 0.0201 1.056c5e-3 0.3389 0.0101 0.6578 0.0131 0.971s6e-3 0.6254 8e-3 0.965 3e-3 0.707 4e-3 1.093c1e-3 0.3865 2e-3 0.788 2e-3 1.177 4.2e-4 0.3893 6.3e-4 0.7663 7.6e-4 1.12 1.2e-4 0.3533 1.6e-4 0.6828 1.8e-4 0.9934s2e-5 0.6021 5e-4 0.8956c4.9e-4 0.43 5e-4 0.8592 4.2e-4 1.342-7e-5 0.4824-2.3e-4 1.018-8.1e-4 1.587-1e-3 0.5686-2e-3 1.167-4e-3 1.712-2e-3 0.5447-5e-3 1.025-0.01 1.489s-0.0111 0.9392-0.0201 1.461c-9e-3 0.5221-0.0209 1.075-0.0367 1.602s-0.0355 1.031-0.0607 1.542c-0.0252 0.5109-0.0558 1.035-0.0938 1.568-0.0759 1.065-0.1805 2.128-0.3327 3.216s-0.352 2.195-0.6235 3.317-0.6158 2.261-1.054 3.394c-0.4377 1.133-0.9703 2.259-1.592 3.336-0.6216 1.077-1.331 2.101-2.093 3.047-0.7624 0.9455-1.577 1.813-2.412 2.609-0.8355 0.7959-1.699 1.525-2.561 2.198-0.4311 0.3367-0.864 0.6606-1.302 0.9765-0.4379 0.3159-0.8809 0.6239-1.321 0.922-0.4404 0.2981-0.8743 0.5839-1.303 0.8607-0.4291 0.2768-0.8581 0.5473-1.309 0.8258-0.4509 0.2785-0.924 0.5653-1.37 0.8331-0.4457 0.2677-0.8514 0.5093-1.251 0.7453s-0.8162 0.4799-1.288 0.7548c-0.4722 0.2748-0.9904 0.5751-1.482 0.8596-0.4918 0.2846-0.9547 0.552-1.372 0.793-0.4172 0.2409-0.7888 0.4554-1.161 0.6704-0.2542 0.1467-0.5066 0.2924-0.7754 0.4476-0.2688 0.1551-0.5538 0.3196-0.8595 0.4959s-0.6318 0.3643-0.9689 0.5585c-0.3371 0.1941-0.6852 0.3943-1.021 0.587s-0.6558 0.3759-0.952 0.5446c-0.2962 0.1687-0.5687 0.3231-0.8414 0.4765-0.2726 0.1535-0.5496 0.3085-0.8443 0.4724-0.2947 0.1638-0.607 0.3365-0.9216 0.5088-0.3146 0.1722-0.6287 0.3425-0.933 0.5048-0.3044 0.1624-0.5992 0.3169-0.8922 0.4677-0.586 0.3015-1.178 0.5952-1.78 0.8787-0.6025 0.2834-1.204 0.5498-1.795 0.7873s-1.179 0.4493-1.764 0.6287c-1.171 0.3588-2.317 0.5764-3.381 0.5504-1.065-0.025-2.04-0.3072-2.843-0.8742s-1.428-1.411-1.893-2.421c-0.4642-1.01-0.7745-2.178-0.9926-3.416-0.015-0.07-0.0301-0.1396-0.0501-0.2052-0.0206-0.067-0.0466-0.1303-0.0761-0.19-0.0307-0.062-0.0652-0.1206-0.1037-0.1758-0.0403-0.058-0.0848-0.1119-0.1332-0.163-0.09-0.095-0.1932-0.1799-0.3092-0.2555-0.1193-0.078-0.252-0.1457-0.3972-0.2064-0.1447-0.06-0.3016-0.1136-0.4699-0.1591-0.1638-0.044-0.3384-0.082-0.523-0.1117-0.372-0.061-0.7847-0.094-1.198-0.094-0.4138-3e-4 -0.8279 0.032-1.201 0.092-0.1858 0.03-0.3615 0.067-0.5264 0.1114-0.1694 0.046-0.3274 0.099-0.473 0.1595-0.1454 0.061-0.2784 0.1285-0.398 0.206-0.1163 0.075-0.2199 0.16-0.3101 0.2552-0.0643 0.068-0.1216 0.1412-0.172 0.2207-0.0475 0.075-0.0888 0.1556-0.1203 0.2444-0.0303 0.085-0.0516 0.1782-0.0729 0.2713-0.2335 1.324-0.5724 2.57-1.092 3.626-0.5201 1.056-1.232 1.909-2.14 2.434-0.9081 0.5244-2.003 0.7147-3.178 0.6367s-2.427-0.4093-3.686-0.8662c-0.06792-0.022-0.1358-0.044-0.2027-0.059-0.06858-0.016-0.136-0.025-0.2025-0.029h-0.204c-0.07015 0.01-0.1392 0.018-0.2077 0.034-0.1273 0.031-0.2523 0.078-0.3757 0.1403-0.1269 0.064-0.2521 0.1455-0.3771 0.2409-0.1247 0.095-0.2491 0.2045-0.3727 0.3275-0.1203 0.1197-0.2396 0.2523-0.3581 0.3971-0.2386 0.2917-0.4733 0.6327-0.6801 0.9901-0.2071 0.358-0.3862 0.7327-0.5206 1.086-0.06686 0.1759-0.1226 0.3466-0.1667 0.5115-0.04529 0.1695-0.07821 0.3329-0.09853 0.4893-0.02028 0.1561-0.02802 0.3052-0.02071 0.4475 0.0071 0.1384 0.02845 0.2704 0.06574 0.396 0.02659 0.09 0.06128 0.1759 0.1049 0.2593 0.04115 0.079 0.09023 0.1546 0.1513 0.2263 0.05864 0.069 0.1283 0.1338 0.198 0.1998 0.9579 0.806 1.819 1.661 2.462 2.568s1.061 1.871 1.151 2.849-0.1545 1.964-0.6647 2.898c-0.5102 0.9346-1.272 1.819-2.166 2.652-0.4469 0.4166-0.9281 0.8215-1.431 1.216-0.5026 0.3941-1.025 0.7766-1.572 1.157s-1.105 0.7504-1.659 1.107c-0.2769 0.1782-0.5564 0.3552-0.8476 0.5366-0.2912 0.1815-0.5944 0.3676-0.9008 0.5538-0.3065 0.1863-0.6135 0.3712-0.9043 0.5453-0.2907 0.174-0.5648 0.3372-0.8343 0.4967-0.2695 0.1595-0.5386 0.3178-0.8317 0.4893s-0.6105 0.3563-0.9447 0.5504c-0.3342 0.194-0.6816 0.3953-1.019 0.5903-0.3369 0.195-0.6633 0.3837-0.9692 0.5604s-0.5912 0.3415-0.8602 0.4968-0.5214 0.301-0.7756 0.4487c-0.3724 0.2158-0.744 0.4304-1.162 0.6714z" stroke="#fff" stroke-linecap="round" stroke-width="4.471"/><g fill="#fff"><path transform="matrix(21.47 0 0 21.47 326.6 -21059)" d="m41.4 1075c-0.01504-0.3174-0.04219-0.6272-0.07559-0.9323-0.03198-0.2922-0.06967-0.5802-0.1168-0.861-0.0449-0.2674-0.09837-0.5284-0.1649-0.7777-0.06319-0.2367-0.1382-0.4628-0.2199-0.6824-0.07892-0.2121-0.1641-0.4179-0.2611-0.611-0.09286-0.1849-0.1965-0.358-0.3092-0.5198-0.1107-0.159-0.2301-0.3071-0.3573-0.4444-0.2495-0.2693-0.5292-0.4972-0.8315-0.6865-0.3058-0.1914-0.6347-0.3434-0.9826-0.4563-0.3593-0.1167-0.7388-0.1923-1.134-0.2263-0.4122-0.034-0.8411-0.026-1.278 0.01-0.4599 0.038-0.9288 0.1053-1.402 0.1903-0.4925 0.088-0.9896 0.1944-1.491 0.3213-0.5269 0.1333-1.059 0.2896-1.594 0.468-0.5587 0.1862-1.121 0.3965-1.684 0.6066-0.3896 0.1547-0.7792 0.3096-1.168 0.4599-0.3556 0.1373-0.7106 0.2708-1.065 0.4006-0.3257 0.1193-0.6509 0.2355-0.9758 0.3491-0.294 0.1028-0.5877 0.2035-0.8796 0.2935-0.2608 0.08-0.5202 0.1522-0.7765 0.2102-0.2302 0.052-0.458 0.093-0.6803 0.115-0.1951 0.022-0.3859 0.025-0.5703 0.012-0.1632-0.011-0.3213-0.036-0.4673-0.087-0.1342-0.047-0.258-0.1153-0.3642-0.2103-0.1054-0.094-0.1935-0.2149-0.2611-0.3571-0.07193-0.1512-0.1209-0.3268-0.1512-0.5158-0.0331-0.2063-0.04404-0.4285-0.05497-0.6505 0.01369-0.2718 0.02737-0.5439 0.07559-0.829 0.04487-0.2653 0.1197-0.542 0.2199-0.8173 0.09993-0.2744 0.2252-0.5475 0.3711-0.8093 0.1548-0.2779 0.333-0.5432 0.5222-0.7935 0.2063-0.2728 0.4258-0.528 0.6528-0.7657 0.2471-0.2588 0.503-0.497 0.7628-0.718 0.2873-0.2445 0.5793-0.4681 0.8727-0.6705 0.3286-0.2266 0.6591-0.4267 0.9895-0.6269 0.3766-0.2085 0.7531-0.4168 1.127-0.5872 0.3354-0.1529 0.6686-0.2749 0.9964-0.3689 0.2956-0.085 0.5867-0.1456 0.8658-0.1666 0.2596-0.019 0.5087 0 0.7421 0.048 0.217 0.048 0.4204 0.1275 0.5978 0.25 0.1696 0.1172 0.3155 0.2737 0.4329 0.4643 0.1207 0.1958 0.2115 0.4276 0.268 0.6864 0.06098 0.2793 0.08203 0.5899 0.1031 0.8989l9.022-5.212c-0.01987-0.4575-0.03976-0.9149-0.08244-1.357-0.0407-0.4215-0.1021-0.829-0.1855-1.218-0.0804-0.375-0.1812-0.7328-0.3024-1.071-0.1172-0.3277-0.2535-0.637-0.4123-0.9206-0.1564-0.2791-0.3347-0.5332-0.5291-0.7657-0.1941-0.2323-0.4044-0.4432-0.6322-0.627-0.2326-0.1876-0.4836-0.3471-0.749-0.4801-0.2724-0.1365-0.56-0.2454-0.859-0.3294-0.309-0.088-0.6302-0.1486-0.962-0.1826-0.3427-0.035-0.6967-0.041-1.058-0.024-0.3775 0.018-0.7631 0.062-1.154 0.1268-0.4111 0.069-0.8286 0.1614-1.251 0.2777-0.4469 0.1231-0.8991 0.2725-1.354 0.4402-0.4786 0.1766-0.96 0.3734-1.443 0.5871-0.5138 0.2273-1.03 0.4736-1.546 0.7418-0.5446 0.2827-1.09 0.5896-1.635 0.8965-0.6764 0.4066-1.353 0.8132-2.027 1.258-0.6347 0.4182-1.268 0.8699-1.897 1.349-0.5961 0.454-1.189 0.9325-1.773 1.444-0.5556 0.4865-1.104 1.003-1.642 1.543-0.2595 0.2605-0.5167 0.5265-0.7696 0.8014-0.2446 0.2659-0.4852 0.5401-0.7215 0.8212-0.2312 0.2751-0.4583 0.5568-0.6803 0.845-0.2156 0.2799-0.4263 0.566-0.6322 0.857-0.2024 0.2859-0.4001 0.5766-0.591 0.8728-0.1896 0.2942-0.3724 0.5937-0.5497 0.8966-0.176 0.3007-0.3467 0.6047-0.5085 0.9125-0.1617 0.3076-0.3146 0.619-0.4604 0.9323-0.1456 0.313-0.2842 0.6279-0.4123 0.9442-0.1292 0.3192-0.2479 0.6397-0.3573 0.9602-0.1104 0.3232-0.2116 0.6463-0.3024 0.968-0.09301 0.3297-0.1751 0.658-0.2474 0.9839-0.07449 0.3361-0.1385 0.6697-0.1924 0.9998-0.05592 0.3423-0.1011 0.6808-0.1374 1.016-0.03755 0.3458-0.06572 0.6877-0.08246 1.024-0.01748 0.3509-0.02249 0.6952-0.02749 1.039 0.0093 0.4023 0.01861 0.8049 0.0481 1.194 0.02819 0.372 0.07483 0.7319 0.1374 1.079 0.05945 0.3297 0.1333 0.6481 0.2268 0.9482 0.09046 0.2904 0.1993 0.5638 0.323 0.8213 0.1217 0.2534 0.2577 0.4915 0.4123 0.7063 0.1528 0.2123 0.3238 0.402 0.5085 0.5714 0.1858 0.1703 0.3854 0.3202 0.5978 0.4484 0.2166 0.1307 0.4466 0.2384 0.6872 0.3254 0.2495 0.09 0.5105 0.1553 0.7765 0.2103 0.2779 0.057 0.5613 0.102 0.8521 0.127 0.3045 0.024 0.6172 0.034 0.9345 0.024 0.3343-0.01 0.6738-0.033 1.017-0.071 0.3581-0.039 0.7202-0.093 1.086-0.1586 0.3859-0.07 0.7755-0.1548 1.168-0.2538 0.414-0.1045 0.8314-0.2252 1.251-0.357 0.4407-0.1385 0.8835-0.2894 1.326-0.4403 0.3918-0.1399 0.7837-0.2797 1.175-0.4165 0.3645-0.1274 0.7285-0.2522 1.093-0.3768 0.339-0.1161 0.6779-0.232 1.017-0.3491 0.314-0.1084 0.6281-0.2178 0.9414-0.3213 0.2858-0.094 0.571-0.1838 0.8521-0.2538 0.2557-0.064 0.508-0.1108 0.7559-0.1428 0.2199-0.028 0.4362-0.04 0.6459-0.04 0.1911 0 0.3768 0.024 0.5497 0.072 0.1579 0.044 0.3052 0.1113 0.4329 0.2103 0.1262 0.098 0.2333 0.2257 0.3161 0.3809 0.08826 0.1654 0.149 0.3616 0.1855 0.5753 0.04027 0.2358 0.05105 0.4928 0.06184 0.7498-0.01447 0.3175-0.02893 0.635-0.08246 0.9681-0.04863 0.3026-0.1295 0.618-0.2405 0.9323-0.107 0.3029-0.2419 0.6049-0.3986 0.8967-0.1643 0.306-0.3526 0.6009-0.5566 0.8767-0.225 0.3043-0.4693 0.5854-0.7215 0.8451-0.2873 0.2957-0.5851 0.5635-0.8864 0.8132-0.3423 0.2837-0.6892 0.544-1.038 0.7815-0.3996 0.2725-0.8011 0.5151-1.203 0.7578-0.4198 0.2272-0.8397 0.4543-1.258 0.6467-0.3771 0.1736-0.7525 0.319-1.12 0.4244-0.3353 0.096-0.664 0.1594-0.9826 0.1864-0.2948 0.025-0.5809 0.019-0.8452-0.036-0.1269-0.026-0.2487-0.065-0.3642-0.1151-0.1121-0.049-0.2183-0.1095-0.3161-0.1825-0.09769-0.073-0.187-0.1599-0.268-0.2579-0.08146-0.098-0.1545-0.2074-0.2199-0.3254-0.06814-0.123-0.1279-0.2555-0.1787-0.3968-0.0526-0.1463-0.09556-0.3019-0.1306-0.4642-0.03667-0.17-0.06459-0.3474-0.08246-0.5316-0.01912-0.1971-0.02676-0.4021-0.03434-0.608l-9.022 5.21c0.0077 0.4672 0.01535 0.9342 0.04812 1.385 0.03158 0.4344 0.08649 0.8537 0.1649 1.254 0.07557 0.3854 0.173 0.7528 0.2886 1.103 0.1137 0.3445 0.245 0.6724 0.3986 0.9761 0.1528 0.3023 0.3276 0.5807 0.5222 0.8332 0.1967 0.2553 0.4137 0.4842 0.6459 0.6904 0.2362 0.2098 0.4882 0.3962 0.7559 0.5555 0.2778 0.1653 0.5725 0.3014 0.8796 0.4128 0.3168 0.1148 0.6467 0.2039 0.9895 0.2619 0.354 0.06 0.7217 0.087 1.099 0.087 0.3915 0 0.7939-0.035 1.203-0.091 0.4288-0.059 0.8645-0.1442 1.306-0.2539 0.4645-0.1155 0.9349-0.2585 1.409-0.4243 0.503-0.1761 1.01-0.3778 1.519-0.599 0.5388-0.2342 1.08-0.4903 1.622-0.7696 0.5766-0.2971 1.154-0.6206 1.732-0.9441 0.7221-0.433 1.444-0.8661 2.165-1.337 0.6759-0.4417 1.35-0.9165 2.02-1.42 0.6323-0.4754 1.261-0.9764 1.883-1.508 0.5896-0.5034 1.173-1.034 1.745-1.595 0.2732-0.2678 0.5438-0.5425 0.8109-0.8252 0.2602-0.2754 0.5171-0.5583 0.7696-0.8489 0.2451-0.2823 0.4861-0.5718 0.7215-0.8689 0.2296-0.2896 0.454-0.5864 0.6734-0.8886 0.214-0.2947 0.4232-0.5946 0.6253-0.9006 0.1992-0.3015 0.3915-0.6089 0.5772-0.9204 0.1854-0.3109 0.3641-0.6259 0.536-0.9443 0.1703-0.3155 0.3339-0.6343 0.4879-0.9561 0.1539-0.3216 0.2983-0.6461 0.4329-0.972 0.1356-0.3283 0.2612-0.658 0.3779-0.9879 0.1176-0.3322 0.2261-0.6646 0.323-0.9958 0.09874-0.3376 0.1853-0.6739 0.2611-1.008 0.07723-0.3402 0.1432-0.6776 0.1993-1.012 0.05804-0.3461 0.1054-0.6886 0.1443-1.028 0.04016-0.3499 0.07135-0.6961 0.08933-1.036 0.01879-0.3541 0.02309-0.7008 0.02748-1.046-0.0023-0.3442-0.0047-0.6896-0.02062-1.026z" vector-effect="non-scaling-stroke" style="-inkscape-stroke:hairline"/><path transform="matrix(21.47 0 0 21.47 326.6 -21059)" d="m54.25 1107c-0.4855-0.01-0.9716 0-1.457 0.01-0.4894 0.014-0.9778 0.039-1.464 0.075-0.493 0.037-0.9834 0.085-1.471 0.1428-0.4943 0.059-0.9853 0.1263-1.471 0.2063-0.4961 0.081-0.9863 0.175-1.471 0.2777-0.4949 0.1049-0.9836 0.2194-1.464 0.3451-0.4973 0.1302-0.9852 0.2725-1.464 0.4245-0.495 0.1572-0.98 0.3248-1.457 0.4998-0.4928 0.1809-0.9769 0.3696-1.45 0.5672-0.4948 0.2068-0.9775 0.4232-1.45 0.6467-0.49 0.2317-0.9691 0.4711-1.436 0.718-0.4899 0.2589-0.9665 0.5261-1.443 0.7917l-14.58 8.418 34.74 20.05 14.58-8.41c0.4172-0.246 0.8344-0.4919 1.237-0.7458 0.3881-0.2448 0.7624-0.497 1.127-0.7537 0.3559-0.2507 0.7024-0.5057 1.038-0.7656 0.326-0.2528 0.6412-0.5103 0.9415-0.7736 0.2913-0.2553 0.5685-0.516 0.8315-0.7814 0.259-0.2615 0.5041-0.5274 0.7352-0.7974 0.2267-0.2647 0.4399-0.5333 0.6391-0.8053 0.196-0.2676 0.3785-0.5386 0.5429-0.8132 0.162-0.2704 0.3065-0.5444 0.4329-0.8211 0.1252-0.274 0.2327-0.5506 0.3229-0.8291 0.08899-0.2747 0.1611-0.5513 0.213-0.8291 0.05217-0.2794 0.0839-0.56 0.09625-0.841 0.01227-0.279 0.0055-0.5583-0.02065-0.837-0.02655-0.2838-0.073-0.5671-0.1374-0.8489-0.06498-0.2846-0.1482-0.5677-0.2474-0.8489-0.1016-0.288-0.2201-0.5739-0.3573-0.8569-0.1403-0.2892-0.3-0.5753-0.481-0.8568-0.1864-0.2902-0.3953-0.5754-0.6185-0.8569-0.2303-0.2905-0.476-0.5769-0.7421-0.8568-0.2764-0.2907-0.5748-0.5743-0.8864-0.8529-0.3254-0.291-0.665-0.5765-1.017-0.8569-0.3662-0.2917-0.7458-0.5778-1.141-0.8568-0.411-0.2904-0.8385-0.573-1.278-0.8489-0.4606-0.2892-0.9347-0.571-1.409-0.8521l-0.2886-0.1689c-0.433-0.2445-0.866-0.4893-1.312-0.7257-0.4355-0.2306-0.8838-0.4533-1.34-0.6704-0.4406-0.2097-0.8886-0.4142-1.347-0.6109-0.4463-0.1915-0.9023-0.3754-1.367-0.5514-0.4542-0.1718-0.9172-0.3359-1.388-0.4919-0.4578-0.1516-0.9232-0.2956-1.395-0.4324-0.4653-0.1349-0.9367-0.2629-1.416-0.3808-0.4696-0.1156-0.9465-0.2213-1.429-0.3173-0.4756-0.094-0.957-0.1789-1.443-0.2539-0.4768-0.074-0.958-0.1374-1.443-0.1904-0.4802-0.052-0.9641-0.093-1.45-0.123-0.4819-0.031-0.9656-0.05-1.45-0.06zm-2.302 6.816c0.3172 0 0.6339 0.016 0.9483 0.04 0.312 0.023 0.6217 0.057 0.9277 0.099 0.3089 0.043 0.6139 0.095 0.9139 0.1548 0.3058 0.061 0.6065 0.1312 0.9002 0.2102 0.2985 0.08 0.59 0.1688 0.8727 0.2658 0.2926 0.1005 0.5757 0.2101 0.852 0.3253 0.2885 0.1202 0.5697 0.2464 0.8384 0.3808 0.2817 0.1408 0.5497 0.2906 0.8177 0.4408l5.497 3.174c0.2613 0.1596 0.5225 0.3159 0.7696 0.4795 0.2379 0.1575 0.4627 0.3218 0.6735 0.4919 0.2005 0.1617 0.3883 0.3286 0.5635 0.4998 0.1689 0.1651 0.326 0.3342 0.4673 0.5077 0.1378 0.1693 0.2606 0.3426 0.3642 0.5197 0.1012 0.173 0.184 0.3494 0.2543 0.5276 0.07026 0.1782 0.1279 0.3582 0.1649 0.5395 0.03702 0.1815 0.05335 0.3644 0.05495 0.5474 0.0017 0.1843-0.01157 0.3686-0.04812 0.5514-0.03739 0.1871-0.09922 0.3726-0.1787 0.5554-0.08118 0.1868-0.1808 0.3706-0.2955 0.5514-0.1201 0.1892-0.2567 0.3751-0.4123 0.5554-0.1633 0.1892-0.3474 0.3724-0.5428 0.5514-0.2058 0.1884-0.424 0.3721-0.6528 0.5514-0.2456 0.1924-0.5034 0.3798-0.7765 0.5593-0.2887 0.1897-0.5944 0.3706-0.9002 0.5517l-5.655 3.26-19.79-11.42 5.655-3.27c0.3177-0.1792 0.6354-0.3585 0.9688-0.5276 0.3133-0.1588 0.6404-0.3088 0.9757-0.4522 0.3126-0.1337 0.6324-0.2617 0.9621-0.3808 0.3139-0.1134 0.6368-0.2184 0.9688-0.3134 0.3129-0.089 0.6339-0.169 0.962-0.238 0.3149-0.066 0.6363-0.1216 0.9621-0.1666 0.3148-0.044 0.6335-0.078 0.9551-0.099 0.3191-0.024 0.6408-0.024 0.962-0.024z" vector-effect="non-scaling-stroke" style="-inkscape-stroke:hairline"/><path transform="matrix(21.47 0 0 21.47 326.6 -21059)" d="m68.91 1090v-40.12l8.926 5.15v30.98l15.63 9.02v9.14z" vector-effect="non-scaling-stroke" style="-inkscape-stroke:hairline"/><path transform="matrix(21.47 0 0 21.47 326.6 -21059)" d="m140 1071c0.3807-0.3754 0.7615-0.7508 1.127-1.158 0.3552-0.3964 0.6958-0.8232 1.017-1.27 0.3224-0.4481 0.6253-0.9158 0.907-1.396 0.287-0.4899 0.5521-0.9933 0.7902-1.504 0.1215-0.2603 0.236-0.5224 0.3436-0.7855 0.1079-0.2638 0.209-0.5286 0.3024-0.7935 0.0929-0.2634 0.1782-0.527 0.2542-0.7895 0.077-0.2657 0.1446-0.5303 0.2062-0.7935 0.0622-0.2664 0.1182-0.5314 0.1649-0.7935 0.0479-0.2688 0.086-0.5346 0.1168-0.7974 0.0314-0.2684 0.0551-0.5336 0.0687-0.7935 0.0146-0.2696 0.0176-0.5336 0.0206-0.7986-2e-3 -0.275-5e-3 -0.5489-0.0206-0.8145-0.015-0.2567-0.0422-0.5057-0.0756-0.7498-0.0326-0.239-0.0712-0.4735-0.1168-0.7023-0.0444-0.2226-0.0953-0.44-0.158-0.6467-0.061-0.2013-0.133-0.3926-0.213-0.5753-0.0798-0.1824-0.1675-0.3564-0.2611-0.5238-0.0936-0.1672-0.1931-0.3278-0.3024-0.4761-0.1084-0.1472-0.2264-0.2822-0.3504-0.4087-0.2488-0.2538-0.522-0.4736-0.8177-0.6547-0.2996-0.1836-0.6223-0.3275-0.962-0.4365-0.3494-0.1122-0.7167-0.1873-1.099-0.2223-0.4026-0.035-0.8222-0.027-1.251 0.01-0.4466 0.039-0.9029 0.1096-1.367 0.2181-0.4851 0.1132-0.9793 0.2673-1.477 0.4482-0.521 0.1891-1.046 0.4076-1.574 0.6624-0.5596 0.2703-1.122 0.5814-1.684 0.8925-0.479 0.2846-0.9581 0.5691-1.436 0.8767-0.4548 0.2927-0.9087 0.6062-1.361 0.9362-0.4332 0.3165-0.8646 0.6481-1.292 0.9997-0.407 0.335-0.8103 0.6881-1.209 1.055-0.3877 0.3566-0.7714 0.7266-1.148 1.115-0.3625 0.3741-0.7179 0.7653-1.065 1.17-0.3411 0.3979-0.6743 0.8091-0.9964 1.234-0.3178 0.419-0.6248 0.8512-0.9208 1.293-0.2901 0.4332-0.5696 0.876-0.8315 1.329-0.2573 0.4452-0.4974 0.9004-0.7215 1.361-0.2233 0.4586-0.4306 0.9223-0.6184 1.389-0.1892 0.4695-0.3588 0.9416-0.5085 1.412-0.1529 0.481-0.2851 0.9606-0.3986 1.436-0.1182 0.4956-0.2161 0.9868-0.2955 1.472-0.0829 0.5067-0.1456 1.007-0.1855 1.496-0.042 0.5146-0.0588 1.017-0.0754 1.519l8.266-4.77c0.0319-0.3754 0.0636-0.7508 0.1307-1.139 0.0601-0.3471 0.1485-0.7041 0.2611-1.063 0.1029-0.3281 0.2261-0.658 0.3779-0.98 0.1466-0.3108 0.3199-0.6142 0.5085-0.9045 0.1896-0.2918 0.3946-0.5702 0.6116-0.8292 0.2211-0.2639 0.4547-0.5075 0.694-0.7339 0.2558-0.242 0.5181-0.4644 0.7834-0.6585 0.2841-0.208 0.5715-0.3837 0.859-0.5592 0.2641-0.1397 0.5281-0.2797 0.7903-0.3925 0.2444-0.1052 0.4872-0.187 0.7215-0.234 0.2187-0.048 0.4302-0.059 0.6322-0.048 0.1988 0.011 0.3885 0.046 0.5635 0.1112 0.1704 0.064 0.3268 0.1561 0.4604 0.2817 0.1289 0.1212 0.2365 0.2731 0.323 0.4484 0.0917 0.1858 0.1597 0.3978 0.1993 0.6308 0.0423 0.2497 0.0518 0.5236 0.0617 0.7993l-1e-5 1.052c-0.0113 0.2811-0.0228 0.5623-0.0686 0.857-0.043 0.2764-0.1162 0.5648-0.213 0.853s-0.2173 0.5761-0.3573 0.8569c-0.1478 0.2966-0.3174 0.5852-0.5016 0.8609-0.1939 0.2902-0.4039 0.5661-0.6253 0.8213-0.237 0.2731-0.4871 0.5224-0.7421 0.7537-0.2793 0.2533-0.5645 0.4849-0.8521 0.6903-0.3188 0.2277-0.6404 0.4233-0.962 0.6169l-3.278 1.898v7.11l4.082-2.36c0.3075-0.1658 0.6151-0.3314 0.9208-0.4683 0.2782-0.1247 0.5549-0.2255 0.8246-0.2935 0.2431-0.061 0.4806-0.099 0.7078-0.099 0.2158 0 0.4224 0.021 0.6116 0.083 0.1815 0.059 0.347 0.1525 0.4879 0.2817 0.1415 0.1298 0.2581 0.2959 0.3505 0.4881 0.0994 0.2068 0.1708 0.4439 0.213 0.7023 0.0468 0.2867 0.0578 0.5996 0.0688 0.9142v0.9916c-0.0139 0.3062-0.0276 0.6124-0.0757 0.9324-0.0449 0.2985-0.1196 0.609-0.2199 0.9204-0.0994 0.3088-0.224 0.6184-0.3711 0.9204-0.1528 0.314-0.33 0.6198-0.5222 0.9125-0.1986 0.3024-0.4131 0.5909-0.6391 0.8609-0.2283 0.2728-0.4682 0.5268-0.7146 0.7617-0.2621 0.2498-0.5316 0.478-0.804 0.6784-0.2933 0.2158-0.5899 0.3995-0.8864 0.5832-0.3173 0.1721-0.6347 0.344-0.9483 0.4762-0.2883 0.1215-0.5735 0.2097-0.8521 0.2697-0.2625 0.057-0.5192 0.093-0.7628 0.083-0.2363-0.01-0.4602-0.046-0.6665-0.123-0.2008-0.075-0.385-0.1828-0.5429-0.3294-0.1558-0.1446-0.2861-0.3265-0.3917-0.5356-0.1113-0.2205-0.1951-0.4712-0.2474-0.746-0.0572-0.3008-0.0767-0.6304-0.0962-0.9617l-8.411 4.858c1e-3 0.3266 2e-3 0.654 0.0138 0.9753 0.0109 0.3091 0.0312 0.6125 0.0619 0.9086 0.0296 0.2858 0.069 0.5648 0.1168 0.8371 0.0467 0.266 0.1014 0.5256 0.1649 0.7777 0.0618 0.2451 0.1318 0.483 0.213 0.7102 0.0796 0.2227 0.1699 0.4349 0.268 0.6388 0.0973 0.2021 0.2022 0.396 0.3161 0.5793 0.1127 0.1813 0.2342 0.3522 0.3642 0.5118 0.1295 0.159 0.2674 0.3068 0.4123 0.4444 0.1444 0.1372 0.2957 0.2642 0.4535 0.3809 0.1582 0.117 0.3228 0.2235 0.4948 0.3175 0.1721 0.094 0.3514 0.175 0.536 0.246 0.1871 0.072 0.3795 0.1326 0.5772 0.1826 0.2013 0.05 0.4081 0.089 0.6184 0.1191 0.2135 0.031 0.4306 0.05 0.6528 0.06 0.2291 0.01 0.4635 0 0.7009-0.016 0.4859-0.034 0.984-0.1058 1.491-0.2181 0.53-0.1174 1.07-0.2785 1.615-0.472 0.5705-0.2026 1.146-0.4408 1.725-0.718 0.6121-0.2934 1.227-0.6307 1.842-0.9679 0.3414-0.2015 0.6828-0.403 1.024-0.6149 0.3302-0.205 0.6602-0.4198 0.9895-0.6426 0.3168-0.2144 0.6331-0.4362 0.9483-0.6665 0.3057-0.2234 0.6105-0.4547 0.9139-0.6942 0.2926-0.2309 0.5839-0.4693 0.8727-0.718 0.2817-0.2427 0.561-0.4951 0.8383-0.7538 0.268-0.25 0.534-0.5059 0.7971-0.7696 0.2575-0.2581 0.5122-0.5237 0.7628-0.7974 0.2442-0.2668 0.4845-0.5413 0.7215-0.8212 0.2282-0.2695 0.4534-0.544 0.6734-0.8252 0.2178-0.2784 0.4306-0.5633 0.6391-0.853 0.202-0.2808 0.4-0.566 0.591-0.8569 0.187-0.2849 0.3674-0.5753 0.5428-0.8689 0.1751-0.293 0.3453-0.5891 0.5085-0.8886 0.1605-0.2946 0.3142-0.5924 0.4604-0.8927 0.1476-0.3033 0.2875-0.6092 0.4192-0.9165 0.131-0.3057 0.2539-0.6128 0.3711-0.9204 0.1178-0.3093 0.2299-0.6192 0.3298-0.9284 0.0989-0.3061 0.1858-0.6117 0.268-0.9165 0.0828-0.3069 0.1608-0.6131 0.2268-0.9164 0.0671-0.3081 0.1219-0.6131 0.1718-0.9165 0.0512-0.3111 0.0972-0.6204 0.1306-0.9244 0.0339-0.3091 0.0549-0.6128 0.0687-0.9126 0.0143-0.3096 0.0205-0.615 0.0275-0.9193-6e-3 -0.2921-0.0115-0.5852-0.0275-0.8718-0.0154-0.2751-0.0403-0.5441-0.0756-0.8054-0.0341-0.2521-0.0778-0.4969-0.1306-0.734-0.0523-0.2346-0.1134-0.4617-0.1855-0.6785-0.0704-0.2119-0.1513-0.4139-0.2405-0.6071-0.0875-0.1894-0.1832-0.3703-0.2886-0.5396-0.1057-0.1695-0.2212-0.3274-0.3436-0.4761-0.1229-0.1494-0.2528-0.2896-0.3917-0.4166-0.1382-0.1265-0.2854-0.2398-0.4398-0.3413-0.1506-0.099-0.3081-0.1869-0.4742-0.2579-0.1648-0.071-0.3379-0.1257-0.5154-0.1707-0.1759-0.045-0.3559-0.081-0.5428-0.099-0.191-0.021-0.3891-0.022-0.591-0.01-0.2026 0.011-0.409 0.035-0.6184 0.071-0.2167 0.037-0.4368 0.086-0.6597 0.1507-0.2293 0.067-0.4617 0.15-0.694 0.233z" vector-effect="non-scaling-stroke" style="-inkscape-stroke:hairline"/><path transform="matrix(21.47 0 0 21.47 326.6 -21059)" d="m100.1 1014-7.408 4.28 7.476 4.32-6.266 3.61-7.476-4.31-7.504 4.33 7.476 4.32-4.37 2.52 6.83 3.94 4.37-2.52 5.923 3.42-4.37 2.52 6.83 3.94 4.371-2.52 7.682 4.44 7.504-4.34-7.682-4.43 6.266-3.62 7.683 4.44 7.408-4.28-7.683-4.44 4.322-2.49-6.83-3.94-4.322 2.49-5.924-3.42 4.323-2.49-6.831-3.95-4.322 2.5zm6.899 12.54 5.923 3.42-6.267 3.62-5.923-3.42z" vector-effect="non-scaling-stroke" style="-inkscape-stroke:hairline"/></g></svg>
