<?xml version="1.0" encoding="UTF-8"?>
<svg version="1.1" viewBox="0 0 4096 4096" xml:space="preserve" xmlns="http://www.w3.org/2000/svg"><title>Sdl3Sharp - Icon</title><path transform="matrix(21.47 0 0 21.47 326.6 -21059)" d="m76.34 1137c-0.4178 0.2411-0.8816 0.5087-1.374 0.7925s-1.012 0.5822-1.484 0.8528c-0.4727 0.2707-0.89 0.5082-1.294 0.7361-0.4041 0.228-0.8188 0.46-1.275 0.7131s-0.9413 0.5193-1.406 0.7693c-0.4645 0.2499-0.9103 0.4844-1.365 0.7181-0.4551 0.2336-0.9243 0.469-1.404 0.7024-0.9603 0.4667-1.933 0.9076-2.952 1.32s-2.077 0.7924-3.184 1.118c-1.108 0.3259-2.266 0.5972-3.466 0.7846-1.2 0.1875-2.442 0.2893-3.685 0.2893-1.243 0-2.485-0.1018-3.685-0.2892-1.2-0.1875-2.359-0.4587-3.466-0.7843s-2.17-0.7087-3.185-1.119c-0.5072-0.2049-1.004-0.4178-1.497-0.6391-0.4925-0.2212-0.9808-0.4508-1.459-0.6832-0.4784-0.2323-0.9429-0.4651-1.397-0.6982-0.4543-0.2332-0.9031-0.4695-1.37-0.7206-0.4666-0.2512-0.9516-0.5176-1.406-0.7696-0.4547-0.252-0.8668-0.4825-1.271-0.7105-0.4041-0.2279-0.8237-0.4668-1.298-0.7383-0.4742-0.2714-0.9933-0.57-1.486-0.8536-0.4923-0.2835-0.9554-0.5507-1.373-0.7915s-0.7888-0.4553-1.161-0.6702c-0.2542-0.1468-0.5066-0.2925-0.7754-0.4477s-0.5538-0.3198-0.8593-0.4963c-0.3055-0.1765-0.6314-0.3649-0.9681-0.5597-0.3367-0.1949-0.6842-0.3962-1.019-0.5906-0.3348-0.1945-0.6534-0.38-0.9477-0.5521-0.2942-0.1722-0.5642-0.331-0.8334-0.4903-0.2692-0.1594-0.5419-0.3217-0.8313-0.495-0.2893-0.1733-0.595-0.3573-0.9015-0.5436s-0.611-0.3732-0.9038-0.5555c-0.2928-0.1824-0.5741-0.3604-0.8511-0.5387-0.5541-0.3567-1.104-0.7223-1.651-1.102-0.5468-0.38-1.078-0.7675-1.58-1.161-0.5014-0.3935-0.9786-0.7961-1.427-1.213-0.8962-0.8345-1.657-1.718-2.168-2.653-0.5105-0.9348-0.7541-1.92-0.6645-2.898s0.5079-1.942 1.15-2.849c0.6426-0.907 1.499-1.76 2.462-2.568 0.06968-0.066 0.1394-0.1307 0.198-0.1997 0.06102-0.072 0.1101-0.1474 0.1513-0.2264 0.04358-0.083 0.07827-0.1692 0.1049-0.2592 0.03729-0.1256 0.05864-0.2576 0.06574-0.396 0.0073-0.1423-4.3e-4 -0.2915-0.02071-0.4476-0.02032-0.1564-0.05323-0.3198-0.09852-0.4893-0.04407-0.1649-0.09986-0.3356-0.1667-0.5114-0.1344-0.3536-0.3135-0.7282-0.5206-1.086-0.2067-0.3574-0.4414-0.6983-0.68-0.99-0.1184-0.1448-0.2378-0.2774-0.358-0.3972-0.1236-0.123-0.248-0.2324-0.3727-0.3274-0.125-0.095-0.2502-0.1769-0.3771-0.2409-0.1234-0.062-0.2484-0.1093-0.3757-0.1403-0.06842-0.016-0.1375-0.024-0.2077-0.034h-0.204c-0.06648 0-0.1339 0.013-0.2025 0.029-0.06682 0.015-0.1347 0.037-0.2027 0.059-1.176 0.427-2.348 0.745-3.454 0.8477-1.107 0.1028-2.151-0.017-3.043-0.4287-0.8923-0.4118-1.624-1.116-2.178-2.025-0.5543-0.9092-0.939-2.012-1.214-3.202-0.1373-0.5953-0.2474-1.215-0.3375-1.847-0.09003-0.6323-0.16-1.276-0.2157-1.94s-0.0972-1.333-0.1291-1.99c-0.01593-0.3289-0.02944-0.6595-0.041-1.002-0.01156-0.3429-0.02118-0.6986-0.02928-1.057-0.00809-0.3585-0.01466-0.7169-0.02008-1.056-0.00541-0.3388-0.00967-0.6578-0.01308-0.971-0.00341-0.3132-0.00597-0.6253-0.00794-0.965-0.00197-0.3396-0.00335-0.7069-0.00435-1.093-1e-3 -0.3864-0.00162-0.788-0.00204-1.177-4.19e-4 -0.3894-6.32e-4 -0.7664-7.58e-4 -1.12-1.26e-4 -0.3533-1.65e-4 -0.6829-1.86e-4 -0.9935-2e-5 -0.3105-2.1e-5 -0.6021-2.3e-5 -0.8956-2e-6 -0.43-1e-5 -0.8592 6.8e-5 -1.342 7.7e-5 -0.4824 2.38e-4 -1.018 8.1e-4 -1.587 5.8e-4 -0.5687 0.00156-1.167 0.00351-1.712s0.00488-1.025 0.00953-1.489 0.01103-0.9392 0.02012-1.461c0.00909-0.5221 0.02089-1.075 0.03666-1.602 0.01577-0.5273 0.0355-1.031 0.0607-1.542 0.0252-0.511 0.05587-1.035 0.09382-1.568 0.0759-1.065 0.1805-2.128 0.3327-3.216 0.1522-1.088 0.352-2.195 0.6235-3.317s0.6158-2.261 1.054-3.394c0.4377-1.133 0.9703-2.259 1.592-3.336s1.331-2.101 2.093-3.047c0.7624-0.9456 1.577-1.813 2.412-2.609 0.8355-0.7958 1.699-1.525 2.561-2.198 0.4311-0.3368 0.864-0.6607 1.302-0.9766s0.8809-0.6239 1.321-0.922c0.4404-0.298 0.8743-0.5839 1.303-0.8607 0.4291-0.2768 0.8581-0.5473 1.309-0.8258 0.4509-0.2785 0.924-0.5652 1.37-0.833s0.8514-0.5094 1.251-0.7454c0.3995-0.2359 0.8162-0.4799 1.288-0.7547 0.4722-0.2749 0.9904-0.5752 1.482-0.8597 0.4918-0.2846 0.9547-0.552 1.372-0.793 0.4172-0.2409 0.7888-0.4554 1.161-0.6703 0.3724-0.215 0.7439-0.4295 1.161-0.6702 0.4172-0.2408 0.8802-0.5079 1.372-0.7911 0.4918-0.2832 1.01-0.5812 1.482-0.8516s0.8889-0.5075 1.288-0.7328c0.3995-0.2252 0.8052-0.4521 1.251-0.6988 0.4457-0.2468 0.9188-0.5063 1.37-0.7484 0.4509-0.2421 0.8799-0.467 1.309-0.6856s0.8629-0.4336 1.303-0.6441c0.4404-0.2104 0.8835-0.4139 1.321-0.6036 0.4379-0.1896 0.8708-0.3655 1.302-0.5265 0.8622-0.3221 1.726-0.5898 2.561-0.7586 0.8355-0.1659 1.65-0.2409 2.412-0.1759 0.7624 0.065 1.471 0.2712 2.093 0.6302 0.6216 0.359 1.154 0.8701 1.592 1.498s0.782 1.369 1.054 2.178c0.2715 0.8088 0.4713 1.685 0.6235 2.597 0.1522 0.9124 0.2568 1.855 0.3327 2.832 0.03794 0.4887 0.06861 0.9774 0.09381 1.459 0.0252 0.4819 0.04493 0.9625 0.0607 1.472 0.01577 0.5091 0.02756 1.048 0.03666 1.56 0.0091 0.5115 0.01542 0.9793 0.02012 1.438 0.0046 0.4586 0.0075 0.9354 0.0095 1.478 0.0019 0.5425 0.0029 1.14 0.0035 1.708 5.72e-4 0.5679 7.34e-4 1.103 8.11e-4 1.586s7e-5 0.9115-3e-6 1.341c-7.3e-5 0.2935-7.5e-5 0.5851-9.5e-5 0.8957s-6e-5 0.6402-1.86e-4 0.9937c-1.26e-4 0.3534-3.39e-4 0.7306-7.57e-4 1.12-4e-4 0.3899-1e-3 0.7922-2e-3 1.18s-0.0023 0.7565-0.0043 1.098c-0.0019 0.3419-0.0045 0.657-0.0079 0.9742-0.0034 0.3171-0.0077 0.6409-0.01308 0.986-0.0054 0.3452-0.01197 0.7111-0.02007 1.079s-0.01771 0.7347-0.02927 1.091-0.02507 0.7025-0.041 1.05c-0.03186 0.6947-0.07334 1.411-0.1291 2.14-0.05572 0.7283-0.1257 1.453-0.2157 2.189-0.09003 0.7363-0.2002 1.483-0.3375 2.237-0.2746 1.508-0.6593 3.054-1.214 4.604-0.5543 1.549-1.286 3.098-2.178 4.54-0.8923 1.442-1.937 2.767-3.043 3.942-1.107 1.175-2.278 2.21-3.454 3.14-0.06784 0.057-0.1357 0.1131-0.2019 0.1746-0.06796 0.063-0.1342 0.1313-0.1985 0.2026-0.06675 0.074-0.1314 0.1513-0.1935 0.2316-0.06499 0.084-0.1271 0.1714-0.1863 0.2614-0.11 0.1675-0.2096 0.3442-0.2957 0.5278-0.08853 0.1889-0.1629 0.3851-0.2212 0.5863-0.05819 0.2007-0.1005 0.4063-0.1236 0.614-0.02254 0.2021-0.02698 0.4063-0.01041 0.6098 0.0334 0.4102 0.1521 0.8181 0.3576 1.176 0.2059 0.3588 0.499 0.6676 0.8374 0.9034 0.1683 0.1173 0.3479 0.2165 0.5349 0.2989 0.1922 0.085 0.3923 0.1516 0.5961 0.202 0.2035 0.05 0.4106 0.084 0.6185 0.1025 0.2023 0.018 0.4053 0.02 0.6054 0.01 0.1427-0.01 0.284-0.023 0.4229-0.045 0.1311-0.021 0.2601-0.048 0.3829-0.082 0.118-0.033 0.2302-0.073 0.3425-0.1134 1.497-0.5946 3.084-1.119 4.778-1.497 1.694-0.3777 3.501-0.599 5.317-0.599s3.623 0.2211 5.317 0.599c1.695 0.3779 3.286 0.9054 4.778 1.497 0.1123 0.04 0.2245 0.08 0.3425 0.1133 0.1228 0.034 0.2518 0.061 0.3829 0.082 0.1389 0.022 0.2802 0.035 0.4229 0.045 0.2002 0.01 0.4032 0.01 0.6054-0.01 0.2079-0.018 0.4151-0.052 0.6185-0.1024 0.2038-0.05 0.4039-0.117 0.5961-0.202 0.187-0.082 0.3666-0.1817 0.5349-0.299 0.3384-0.2357 0.6315-0.5446 0.8374-0.9034 0.2055-0.358 0.3243-0.7659 0.3577-1.176 0.01658-0.2036 0.01214-0.4077-0.0104-0.6099-0.02316-0.2077-0.06544-0.4133-0.1236-0.6139-0.05835-0.2013-0.1327-0.3975-0.2212-0.5864-0.08611-0.1836-0.1856-0.3603-0.2957-0.5278-0.05913-0.09-0.1213-0.1774-0.1863-0.2614-0.06209-0.08-0.1268-0.1576-0.1935-0.2316-0.06432-0.071-0.1306-0.1396-0.1985-0.2026-0.06622-0.062-0.1341-0.1176-0.202-0.1746-1.176-0.9309-2.348-1.965-3.454-3.14-1.107-1.175-2.151-2.5-3.043-3.942-0.8923-1.442-1.624-2.991-2.178-4.54-0.5543-1.549-0.939-3.096-1.214-4.604-0.1373-0.7539-0.2474-1.5-0.3375-2.237-0.09003-0.7362-0.16-1.461-0.2157-2.189-0.05572-0.7284-0.0972-1.445-0.1291-2.14-0.01593-0.3473-0.02944-0.6935-0.041-1.05-0.01157-0.3563-0.02118-0.7231-0.02928-1.091s-0.01467-0.7338-0.02007-1.079c-0.0054-0.3451-0.0097-0.6689-0.01308-0.986-0.0034-0.3172-0.0059-0.6323-0.0079-0.9742-0.0019-0.3419-0.0033-0.7108-0.0043-1.098s-0.0016-0.7899-2e-3 -1.18c-4.19e-4 -0.3898-6.32e-4 -0.767-7.58e-4 -1.12-1.26e-4 -0.3535-1.65e-4 -0.6831-1.85e-4 -0.9937-2.1e-5 -0.3106-2.2e-5 -0.6022-5e-6 -0.8957 1.8e-5 -0.4299 1.1e-5 -0.8591 8.8e-5 -1.341s2.39e-4 -1.018 8.1e-4 -1.586c6e-4 -0.568 0.0015-1.166 0.0035-1.708 0.0019-0.5425 0.0048-1.019 0.0095-1.478 0.0047-0.4587 0.01102-0.9265 0.02012-1.438 0.0091-0.5116 0.02089-1.051 0.03666-1.56 0.01576-0.509 0.0355-0.9896 0.0607-1.472 0.02521-0.4818 0.05587-0.9705 0.09382-1.459 0.0759-0.9775 0.1805-1.92 0.3327-2.832 0.1521-0.9123 0.352-1.788 0.6235-2.597 0.2715-0.8089 0.6158-1.55 1.054-2.178 0.4377-0.6278 0.9703-1.139 1.592-1.498 0.6216-0.359 1.331-0.5652 2.093-0.6302s1.577 0.01 2.412 0.1759c0.8355 0.1688 1.699 0.4365 2.561 0.7586 0.4311 0.161 0.864 0.3369 1.302 0.5265 0.4379 0.1897 0.8809 0.3932 1.321 0.6036 0.4404 0.2105 0.8743 0.4255 1.303 0.6441s0.8581 0.4435 1.309 0.6856 0.924 0.5016 1.37 0.7484c0.4457 0.2467 0.8514 0.4736 1.251 0.6988 0.3995 0.2253 0.8162 0.4624 1.288 0.7328s0.9904 0.5684 1.482 0.8516 0.9547 0.5503 1.372 0.7911c0.4172 0.2407 0.7888 0.4552 1.161 0.6702 0.2542 0.1467 0.5066 0.2924 0.7754 0.4476 0.2688 0.1552 0.5538 0.3198 0.8595 0.4964 0.3056 0.1766 0.6318 0.3651 0.9689 0.5602s0.6852 0.3968 1.021 0.5918c0.3358 0.195 0.6558 0.3813 0.952 0.5546s0.5687 0.3335 0.8414 0.4949c0.2726 0.1613 0.5496 0.3261 0.8443 0.5025s0.607 0.3642 0.9216 0.5552c0.3146 0.191 0.6287 0.3834 0.9331 0.5724 0.3043 0.1891 0.5992 0.3749 0.8921 0.5624 0.586 0.3751 1.178 0.7646 1.78 1.177 0.6025 0.4122 1.204 0.8401 1.795 1.286 0.5915 0.4455 1.179 0.9117 1.764 1.408 1.171 0.9931 2.317 2.099 3.381 3.354 1.065 1.255 2.04 2.662 2.843 4.156 0.8027 1.494 1.428 3.06 1.893 4.606 0.4642 1.546 0.7745 3.072 0.9927 4.562 0.0213 0.1173 0.0426 0.2346 0.0729 0.3534 0.0315 0.1235 0.0728 0.2487 0.1203 0.3726 0.0503 0.1314 0.1077 0.2614 0.172 0.3891 0.0901 0.1792 0.1937 0.3538 0.3101 0.5203 0.1196 0.1711 0.2526 0.3336 0.398 0.4846 0.1456 0.1514 0.3036 0.2913 0.473 0.4154 0.1649 0.1209 0.3406 0.227 0.5264 0.314 0.3735 0.1756 0.7876 0.2736 1.201 0.2736 0.413-1e-3 0.8256-0.1022 1.198-0.2785 0.1846-0.087 0.3592-0.1934 0.523-0.314 0.1683-0.124 0.3252-0.2635 0.4699-0.4143 0.1451-0.1512 0.2779-0.3138 0.3972-0.485 0.116-0.1665 0.2192-0.341 0.3092-0.5202 0.0484-0.096 0.0929-0.1941 0.1332-0.2921 0.0385-0.094 0.073-0.1884 0.1037-0.2834 0.0295-0.091 0.0555-0.1833 0.0761-0.2733 0.02-0.088 0.0351-0.1752 0.0501-0.2622 0.2334-1.594 0.5724-3.231 1.092-4.887 0.5201-1.656 1.232-3.332 2.14-4.904 0.9081-1.573 2.003-3.027 3.178-4.305 1.175-1.279 2.427-2.393 3.686-3.39 0.0678-0.057 0.1357-0.1131 0.2019-0.1746 0.068-0.063 0.1342-0.1313 0.1985-0.2026 0.0667-0.074 0.1314-0.1512 0.1935-0.2315 0.065-0.084 0.1272-0.1714 0.1863-0.2615 0.11-0.1675 0.2096-0.3441 0.2957-0.5278 0.0885-0.1888 0.1629-0.3851 0.2212-0.5863 0.0582-0.2007 0.1005-0.4063 0.1236-0.614 0.0225-0.2021 0.027-0.4062 0.0104-0.6098-0.0334-0.4102-0.1521-0.8181-0.3576-1.176-0.2059-0.3588-0.499-0.6676-0.8374-0.9034-0.1683-0.1173-0.3479-0.2166-0.5349-0.299-0.1922-0.085-0.3923-0.1516-0.5961-0.202-0.2034-0.05-0.4106-0.084-0.6185-0.1024-0.2023-0.018-0.4052-0.02-0.6054-0.01-0.1427 0.01-0.284 0.023-0.4229 0.045-0.1311 0.021-0.2601 0.048-0.3829 0.082-0.118 0.033-0.2302 0.073-0.3425 0.1134-1.399 0.5557-2.876 1.05-4.447 1.421-1.571 0.371-3.241 0.6122-4.936 0.6642s-3.401-0.089-5.021-0.3837c-1.619-0.2946-3.15-0.7339-4.595-1.251-0.7228-0.2587-1.42-0.5341-2.102-0.8236-0.6815-0.2894-1.353-0.5962-2.011-0.9119-0.6582-0.3156-1.291-0.6333-1.909-0.9532-0.3089-0.1599-0.6172-0.3223-0.9332-0.4913-0.3159-0.1691-0.6396-0.3448-0.9623-0.5218-0.3227-0.1769-0.6415-0.3534-0.9417-0.5204-0.3001-0.167-0.5814-0.3245-0.8574-0.4799-0.276-0.1554-0.5511-0.3113-0.8493-0.4811-0.2982-0.1699-0.6196-0.3538-0.9564-0.5471s-0.6855-0.3938-1.023-0.5882c-0.3376-0.1944-0.6639-0.3826-0.9697-0.5589-0.3057-0.1764-0.5909-0.3409-0.8596-0.4961-0.2688-0.1551-0.5213-0.3009-0.7754-0.4476-0.3724-0.2149-0.7439-0.4294-1.161-0.6703-0.4172-0.2409-0.88-0.5083-1.371-0.7925-0.4912-0.2842-1.008-0.5839-1.479-0.8576-0.4703-0.2738-0.884-0.516-1.279-0.7493s-0.7942-0.4712-1.231-0.7337c-0.4366-0.2626-0.8979-0.5425-1.333-0.8119-0.4351-0.2694-0.8444-0.5285-1.248-0.7907-0.4039-0.2623-0.8071-0.5304-1.21-0.8066-0.4025-0.2762-0.8003-0.558-1.183-0.8424-0.3832-0.2843-0.752-0.5712-1.107-0.864-0.7101-0.5856-1.374-1.199-1.938-1.838-0.564-0.6391-1.034-1.308-1.359-2.001s-0.501-1.41-0.501-2.127c-3e-6 -0.7177 0.1763-1.434 0.5011-2.127 0.3248-0.6928 0.7945-1.362 1.359-2.001 0.5647-0.6395 1.223-1.25 1.937-1.838 0.714-0.5879 1.478-1.15 2.286-1.704 0.4043-0.2772 0.8121-0.5481 1.217-0.8108 0.4047-0.2627 0.811-0.52 1.244-0.7882 0.433-0.2681 0.8941-0.548 1.333-0.8116 0.4384-0.2636 0.8404-0.503 1.235-0.7363s0.8063-0.4742 1.275-0.7471c0.4688-0.2729 0.9857-0.5724 1.477-0.8569 0.4916-0.2844 0.9551-0.5522 1.373-0.7933 0.4176-0.2412 0.7893-0.4558 1.162-0.6707 0.3724-0.215 0.744-0.4295 1.162-0.6706s0.8816-0.5087 1.374-0.7925c0.4927-0.2837 1.012-0.5821 1.484-0.8528 0.4727-0.2707 0.89-0.5082 1.294-0.7361s0.8188-0.46 1.275-0.7131 0.9413-0.5193 1.406-0.7692c0.4645-0.25 0.9103-0.4845 1.365-0.7181 0.4551-0.2336 0.9243-0.4691 1.404-0.7025 0.9603-0.4667 1.933-0.9076 2.952-1.32 1.018-0.4121 2.077-0.7924 3.184-1.118 1.108-0.326 2.266-0.5972 3.466-0.7847s2.442-0.2893 3.685-0.2893 2.485 0.1018 3.685 0.2892c1.2 0.1875 2.359 0.4587 3.466 0.7843s2.17 0.7087 3.185 1.119c0.5072 0.205 1.004 0.4179 1.497 0.6391s0.9808 0.4509 1.459 0.6832c0.4784 0.2323 0.9429 0.4651 1.397 0.6983 0.4543 0.2331 0.9031 0.4694 1.37 0.7206 0.4666 0.2511 0.9516 0.5175 1.406 0.7695s0.8668 0.4826 1.271 0.7105c0.4041 0.2279 0.8237 0.4668 1.298 0.7383s0.9933 0.57 1.486 0.8536c0.4923 0.2835 0.9554 0.5507 1.373 0.7915 0.4173 0.2409 0.7888 0.4553 1.161 0.6703 0.2542 0.1467 0.5066 0.2925 0.7754 0.4476 0.2688 0.1552 0.5538 0.3198 0.8593 0.4963s0.6314 0.3649 0.9681 0.5598c0.3367 0.1948 0.6842 0.3961 1.019 0.5906 0.3348 0.1944 0.6534 0.3799 0.9477 0.5521 0.2942 0.1721 0.5642 0.3309 0.8334 0.4902 0.2692 0.1594 0.5419 0.3218 0.8312 0.495 0.2893 0.1733 0.595 0.3573 0.9015 0.5436 0.3065 0.1863 0.611 0.3732 0.9038 0.5556 0.2928 0.1823 0.5741 0.3603 0.8511 0.5387 0.5541 0.3566 1.104 0.7222 1.651 1.102s1.078 0.7675 1.58 1.161c0.5014 0.3934 0.9786 0.796 1.427 1.213 0.8962 0.8345 1.657 1.718 2.168 2.653 0.5105 0.9348 0.7541 1.92 0.6645 2.898s-0.5079 1.942-1.15 2.849c-0.6426 0.9069-1.499 1.76-2.462 2.567-0.0529 0.048-0.1057 0.096-0.1524 0.146-0.0479 0.052-0.0894 0.1055-0.1263 0.1609-0.0383 0.058-0.0717 0.1167-0.1002 0.1777-0.0299 0.064-0.0544 0.1293-0.0744 0.1968-0.0373 0.1255-0.059 0.2572-0.0664 0.3954-8e-3 0.1421-5e-5 0.2911 0.02 0.447 0.02 0.1555 0.0525 0.318 0.0972 0.4865 0.0435 0.164 0.0987 0.3337 0.1649 0.5086 0.1333 0.3525 0.3112 0.7262 0.5174 1.084 0.2065 0.3585 0.4414 0.7009 0.6804 0.9941 0.1189 0.1458 0.2388 0.2795 0.3596 0.4001 0.1242 0.124 0.2492 0.2342 0.3745 0.33 0.1251 0.096 0.2504 0.1769 0.3772 0.2418 0.1234 0.063 0.2484 0.1106 0.3759 0.1411 0.0909 0.022 0.183 0.035 0.277 0.039 0.0887 0 0.1791-7e-4 0.2717-0.018 0.089-0.016 0.18-0.044 0.2712-0.072 1.176-0.4271 2.348-0.745 3.454-0.8478 1.107-0.1028 2.151 0.017 3.043 0.4287 0.8922 0.4119 1.624 1.116 2.178 2.025 0.5543 0.9093 0.939 2.012 1.214 3.202 0.1373 0.5953 0.2475 1.215 0.3375 1.847s0.16 1.276 0.2157 1.94c0.0558 0.664 0.0972 1.333 0.1291 1.99 0.0159 0.3289 0.0294 0.6595 0.041 1.002 0.0116 0.3429 0.0213 0.6985 0.0293 1.057s0.0151 0.717 0.0201 1.056c5e-3 0.3389 0.0101 0.6578 0.0131 0.971s6e-3 0.6254 8e-3 0.965 3e-3 0.707 4e-3 1.093c1e-3 0.3865 2e-3 0.788 2e-3 1.177 4.2e-4 0.3893 6.3e-4 0.7663 7.6e-4 1.12 1.2e-4 0.3533 1.6e-4 0.6828 1.8e-4 0.9934s2e-5 0.6021 5e-4 0.8956c4.9e-4 0.43 5e-4 0.8592 4.2e-4 1.342-7e-5 0.4824-2.3e-4 1.018-8.1e-4 1.587-1e-3 0.5686-2e-3 1.167-4e-3 1.712-2e-3 0.5447-5e-3 1.025-0.01 1.489s-0.0111 0.9392-0.0201 1.461c-9e-3 0.5221-0.0209 1.075-0.0367 1.602s-0.0355 1.031-0.0607 1.542c-0.0252 0.5109-0.0558 1.035-0.0938 1.568-0.0759 1.065-0.1805 2.128-0.3327 3.216s-0.352 2.195-0.6235 3.317-0.6158 2.261-1.054 3.394c-0.4377 1.133-0.9703 2.259-1.592 3.336-0.6216 1.077-1.331 2.101-2.093 3.047-0.7624 0.9455-1.577 1.813-2.412 2.609-0.8355 0.7959-1.699 1.525-2.561 2.198-0.4311 0.3367-0.864 0.6606-1.302 0.9765-0.4379 0.3159-0.8809 0.6239-1.321 0.922-0.4404 0.2981-0.8743 0.5839-1.303 0.8607-0.4291 0.2768-0.8581 0.5473-1.309 0.8258-0.4509 0.2785-0.924 0.5653-1.37 0.8331-0.4457 0.2677-0.8514 0.5093-1.251 0.7453s-0.8162 0.4799-1.288 0.7548c-0.4722 0.2748-0.9904 0.5751-1.482 0.8596-0.4918 0.2846-0.9547 0.552-1.372 0.793-0.4172 0.2409-0.7888 0.4554-1.161 0.6704-0.2542 0.1467-0.5066 0.2924-0.7754 0.4476-0.2688 0.1551-0.5538 0.3196-0.8595 0.4959s-0.6318 0.3643-0.9689 0.5585c-0.3371 0.1941-0.6852 0.3943-1.021 0.587s-0.6558 0.3759-0.952 0.5446c-0.2962 0.1687-0.5687 0.3231-0.8414 0.4765-0.2726 0.1535-0.5496 0.3085-0.8443 0.4724-0.2947 0.1638-0.607 0.3365-0.9216 0.5088-0.3146 0.1722-0.6287 0.3425-0.933 0.5048-0.3044 0.1624-0.5992 0.3169-0.8922 0.4677-0.586 0.3015-1.178 0.5952-1.78 0.8787-0.6025 0.2834-1.204 0.5498-1.795 0.7873s-1.179 0.4493-1.764 0.6287c-1.171 0.3588-2.317 0.5764-3.381 0.5504-1.065-0.025-2.04-0.3072-2.843-0.8742s-1.428-1.411-1.893-2.421c-0.4642-1.01-0.7745-2.178-0.9926-3.416-0.015-0.07-0.0301-0.1396-0.0501-0.2052-0.0206-0.067-0.0466-0.1303-0.0761-0.19-0.0307-0.062-0.0652-0.1206-0.1037-0.1758-0.0403-0.058-0.0848-0.1119-0.1332-0.163-0.09-0.095-0.1932-0.1799-0.3092-0.2555-0.1193-0.078-0.252-0.1457-0.3972-0.2064-0.1447-0.06-0.3016-0.1136-0.4699-0.1591-0.1638-0.044-0.3384-0.082-0.523-0.1117-0.372-0.061-0.7847-0.094-1.198-0.094-0.4138-3e-4 -0.8279 0.032-1.201 0.092-0.1858 0.03-0.3615 0.067-0.5264 0.1114-0.1694 0.046-0.3274 0.099-0.473 0.1595-0.1454 0.061-0.2784 0.1285-0.398 0.206-0.1163 0.075-0.2199 0.16-0.3101 0.2552-0.0643 0.068-0.1216 0.1412-0.172 0.2207-0.0475 0.075-0.0888 0.1556-0.1203 0.2444-0.0303 0.085-0.0516 0.1782-0.0729 0.2713-0.2335 1.324-0.5724 2.57-1.092 3.626-0.5201 1.056-1.232 1.909-2.14 2.434-0.9081 0.5244-2.003 0.7147-3.178 0.6367s-2.427-0.4093-3.686-0.8662c-0.06792-0.022-0.1358-0.044-0.2027-0.059-0.06858-0.016-0.136-0.025-0.2025-0.029h-0.204c-0.07015 0.01-0.1392 0.018-0.2077 0.034-0.1273 0.031-0.2523 0.078-0.3757 0.1403-0.1269 0.064-0.2521 0.1455-0.3771 0.2409-0.1247 0.095-0.2491 0.2045-0.3727 0.3275-0.1203 0.1197-0.2396 0.2523-0.3581 0.3971-0.2386 0.2917-0.4733 0.6327-0.6801 0.9901-0.2071 0.358-0.3862 0.7327-0.5206 1.086-0.06686 0.1759-0.1226 0.3466-0.1667 0.5115-0.04529 0.1695-0.07821 0.3329-0.09853 0.4893-0.02028 0.1561-0.02802 0.3052-0.02071 0.4475 0.0071 0.1384 0.02845 0.2704 0.06574 0.396 0.02659 0.09 0.06128 0.1759 0.1049 0.2593 0.04115 0.079 0.09023 0.1546 0.1513 0.2263 0.05864 0.069 0.1283 0.1338 0.198 0.1998 0.9579 0.806 1.819 1.661 2.462 2.568s1.061 1.871 1.151 2.849-0.1545 1.964-0.6647 2.898c-0.5102 0.9346-1.272 1.819-2.166 2.652-0.4469 0.4166-0.9281 0.8215-1.431 1.216-0.5026 0.3941-1.025 0.7766-1.572 1.157s-1.105 0.7504-1.659 1.107c-0.2769 0.1782-0.5564 0.3552-0.8476 0.5366-0.2912 0.1815-0.5944 0.3676-0.9008 0.5538-0.3065 0.1863-0.6135 0.3712-0.9043 0.5453-0.2907 0.174-0.5648 0.3372-0.8343 0.4967-0.2695 0.1595-0.5386 0.3178-0.8317 0.4893s-0.6105 0.3563-0.9447 0.5504c-0.3342 0.194-0.6816 0.3953-1.019 0.5903-0.3369 0.195-0.6633 0.3837-0.9692 0.5604s-0.5912 0.3415-0.8602 0.4968-0.5214 0.301-0.7756 0.4487c-0.3724 0.2158-0.744 0.4304-1.162 0.6714z" fill="none" stroke="#000" stroke-linecap="round" stroke-width="4.471"/></svg>
