<?xml version="1.0" encoding="UTF-8"?>
<svg version="1.1" viewBox="0 0 4096 4096" xml:space="preserve" xmlns="http://www.w3.org/2000/svg"><title>Sdl3Sharp - Icon</title><path transform="matrix(21.47 0 0 21.47 326.6 -21059)" d="m106.9 1007c-1.243 0-2.485 0.1018-3.685 0.2893-1.2 0.1875-2.359 0.4587-3.466 0.7847-1.108 0.3259-2.166 0.7062-3.184 1.118-1.018 0.4122-1.991 0.8531-2.952 1.32-0.4801 0.2334-0.9493 0.4689-1.404 0.7025-0.4551 0.2336-0.9009 0.4681-1.365 0.7181-0.4645 0.2499-0.9492 0.5161-1.406 0.7692-0.4566 0.2531-0.8714 0.4852-1.275 0.7131s-0.8214 0.4654-1.294 0.7361c-0.4727 0.2707-0.9916 0.5691-1.484 0.8528-0.4927 0.2838-0.9566 0.5514-1.374 0.7925-0.4178 0.2411-0.7894 0.4556-1.162 0.6706-0.3724 0.2149-0.744 0.4295-1.162 0.6707-0.4176 0.2411-0.8812 0.5089-1.373 0.7933-0.4916 0.2845-1.008 0.584-1.477 0.8569-0.4688 0.2729-0.8803 0.5138-1.275 0.7471s-0.7967 0.4727-1.235 0.7363c-0.4384 0.2636-0.8996 0.5435-1.333 0.8116-0.433 0.2682-0.8393 0.5255-1.244 0.7882-0.4047 0.2627-0.8125 0.5336-1.217 0.8108-0.8085 0.5543-1.572 1.116-2.286 1.704-0.714 0.5878-1.373 1.199-1.937 1.838-0.5647 0.6394-1.034 1.308-1.359 2.001-0.3247 0.6929-0.5011 1.41-0.5011 2.127 4e-6 0.7178 0.1763 1.434 0.501 2.127 0.3247 0.6928 0.7945 1.362 1.359 2.001 0.564 0.639 1.228 1.253 1.938 1.838 0.355 0.2928 0.7238 0.5797 1.107 0.864 0.3832 0.2844 0.781 0.5662 1.184 0.8424 0.4025 0.2762 0.8057 0.5443 1.21 0.8066 0.4039 0.2622 0.8132 0.5213 1.248 0.7907 0.4351 0.2694 0.8964 0.5493 1.333 0.8119 0.4366 0.2625 0.8359 0.5004 1.231 0.7337s0.8086 0.4755 1.279 0.7493c0.4703 0.2737 0.9874 0.5734 1.479 0.8576 0.4912 0.2842 0.954 0.5516 1.371 0.7925 0.4172 0.2409 0.7886 0.4554 1.161 0.6703 0.2542 0.1467 0.5066 0.2925 0.7754 0.4476 0.2688 0.1552 0.5539 0.3197 0.8597 0.4961 0.3057 0.1763 0.6321 0.3645 0.9697 0.5589 0.3375 0.1944 0.6863 0.3949 1.023 0.5882 0.3368 0.1933 0.6582 0.3772 0.9564 0.5471 0.2982 0.1698 0.5733 0.3257 0.8493 0.4811 0.276 0.1554 0.5573 0.3129 0.8574 0.4799 0.3001 0.167 0.619 0.3435 0.9417 0.5204 0.3227 0.177 0.6464 0.3527 0.9623 0.5218 0.3159 0.169 0.6243 0.3314 0.9332 0.4913 0.6178 0.3199 1.251 0.6376 1.909 0.9532 0.6582 0.3157 1.33 0.6225 2.011 0.9119 0.6815 0.2895 1.379 0.5649 2.102 0.8236 1.445 0.5174 2.976 0.9567 4.595 1.251 1.619 0.2947 3.326 0.4357 5.021 0.3837s3.365-0.2932 4.936-0.6642c1.571-0.3709 3.048-0.8653 4.447-1.421 0.1122-0.04 0.2245-0.08 0.3425-0.1134 0.1228-0.034 0.2518-0.061 0.3829-0.082 0.1389-0.022 0.2802-0.035 0.4229-0.045 0.2002-0.01 0.4031-0.01 0.6054 0.01 0.2079 0.018 0.4151 0.052 0.6185 0.1024 0.2038 0.05 0.4039 0.117 0.5961 0.202 0.187 0.082 0.3665 0.1817 0.5348 0.299 0.3384 0.2358 0.6314 0.5446 0.8374 0.9034 0.2055 0.358 0.3243 0.7659 0.3577 1.176 0.0166 0.2036 0.012 0.4077-0.0105 0.6098-0.0232 0.2077-0.0654 0.4133-0.1236 0.614-0.0584 0.2012-0.1327 0.3975-0.2212 0.5863-0.0861 0.1837-0.1856 0.3603-0.2957 0.5278-0.0591 0.09-0.1212 0.1775-0.1862 0.2615-0.0621 0.08-0.1268 0.1575-0.1935 0.2315-0.0643 0.071-0.1306 0.1396-0.1986 0.2026-0.0662 0.062-0.1341 0.1176-0.2019 0.1746-1.258 0.9961-2.511 2.111-3.686 3.39-1.175 1.279-2.269 2.732-3.178 4.305-0.9081 1.573-1.62 3.248-2.14 4.904-0.5201 1.656-0.859 3.293-1.092 4.887-0.015 0.087-0.03 0.1742-0.05 0.2622-0.0206 0.09-0.0466 0.1823-0.0761 0.2733-0.0307 0.095-0.0652 0.1894-0.1037 0.2834-0.0403 0.098-0.0848 0.1961-0.1332 0.2921-0.09 0.1792-0.1932 0.3537-0.3092 0.5202-0.1193 0.1712-0.2521 0.3338-0.3972 0.485-0.1447 0.1508-0.3016 0.2903-0.4699 0.4143-0.1638 0.1206-0.3385 0.227-0.5231 0.314-0.372 0.1763-0.7847 0.2775-1.198 0.2785-0.4138 0-0.8279-0.098-1.201-0.2736-0.1858-0.087-0.3615-0.1931-0.5264-0.314-0.1694-0.1241-0.3274-0.264-0.473-0.4154-0.1454-0.151-0.2784-0.3135-0.398-0.4846-0.1163-0.1665-0.2199-0.3411-0.31-0.5203-0.0643-0.1277-0.1217-0.2577-0.172-0.3891-0.0475-0.1239-0.0888-0.2491-0.1203-0.3726-0.0303-0.1188-0.0516-0.2361-0.0729-0.3534-0.2182-1.49-0.5286-3.016-0.9928-4.562-0.4642-1.546-1.09-3.113-1.893-4.606-0.8027-1.494-1.778-2.901-2.843-4.156-1.065-1.255-2.211-2.36-3.381-3.354-0.5854-0.4965-1.173-0.9627-1.764-1.408-0.5915-0.4454-1.193-0.8733-1.795-1.286-0.6025-0.4122-1.194-0.8017-1.78-1.177-0.293-0.1875-0.5878-0.3733-0.8921-0.5624-0.3043-0.189-0.6185-0.3814-0.9331-0.5724-0.3146-0.191-0.6268-0.3788-0.9215-0.5552-0.2947-0.1764-0.5718-0.3412-0.8444-0.5025-0.2726-0.1614-0.5452-0.3216-0.8414-0.4949s-0.6162-0.3596-0.952-0.5546c-0.3358-0.195-0.6838-0.3967-1.021-0.5918-0.3371-0.1951-0.6633-0.3836-0.9689-0.5602-0.3056-0.1766-0.5907-0.3412-0.8595-0.4964-0.2688-0.1552-0.5212-0.3009-0.7753-0.4476-0.3724-0.215-0.7439-0.4295-1.161-0.6702-0.4172-0.2408-0.8802-0.5079-1.372-0.7911-0.4918-0.2832-1.01-0.5812-1.482-0.8516-0.4722-0.2704-0.8889-0.5075-1.288-0.7328-0.3995-0.2252-0.8052-0.4521-1.251-0.6988-0.4457-0.2468-0.9188-0.5063-1.37-0.7484-0.4509-0.2421-0.88-0.467-1.309-0.6856s-0.8629-0.4336-1.303-0.6441c-0.4404-0.2104-0.8835-0.4139-1.321-0.6036-0.4379-0.1896-0.8708-0.3655-1.302-0.5265-0.8622-0.3221-1.726-0.5898-2.561-0.7586-0.8355-0.1659-1.65-0.2409-2.412-0.1759s-1.471 0.2712-2.093 0.6302c-0.6216 0.359-1.154 0.8701-1.592 1.498-0.4377 0.6278-0.782 1.369-1.054 2.178-0.2715 0.8088-0.4714 1.685-0.6235 2.597-0.1522 0.9124-0.2568 1.855-0.3327 2.832-0.03795 0.4887-0.06858 0.9774-0.09379 1.459-0.0252 0.4819-0.04492 0.9625-0.06068 1.472-0.01577 0.5091-0.02756 1.048-0.03666 1.56-0.0091 0.5115-0.01549 0.9793-0.02019 1.438-0.0047 0.4586-0.0076 0.9354-0.0095 1.478-2e-3 0.5425-0.0029 1.14-0.0035 1.708-5.71e-4 0.5679-7.42e-4 1.103-8.19e-4 1.586s-7.3e-5 0.9115-9.1e-5 1.341c-1.7e-5 0.2935-2.1e-5 0.5851 0 0.8957 2e-5 0.3106 5.6e-5 0.6402 1.82e-4 0.9937 1.26e-4 0.3534 3.09e-4 0.7306 7.28e-4 1.12 4e-4 0.3899 1e-3 0.7922 2e-3 1.18s0.0024 0.7565 0.0043 1.098c2e-3 0.3419 0.0045 0.657 0.0079 0.9742 0.0034 0.3171 0.0077 0.6409 0.0131 0.986 0.0054 0.3452 0.012 0.7111 0.0201 1.079s0.01763 0.7347 0.0292 1.091c0.01156 0.3563 0.0251 0.7025 0.04103 1.05 0.03186 0.6947 0.07337 1.411 0.1291 2.14 0.05572 0.7283 0.1257 1.453 0.2157 2.189 0.09004 0.7363 0.2002 1.483 0.3375 2.237 0.2746 1.508 0.6593 3.054 1.214 4.604 0.5543 1.549 1.286 3.098 2.178 4.54 0.8923 1.442 1.937 2.767 3.043 3.942 1.107 1.175 2.278 2.21 3.454 3.14 0.06791 0.057 0.1357 0.1126 0.202 0.1746 0.06796 0.063 0.1342 0.1316 0.1985 0.2026 0.06675 0.074 0.1314 0.1516 0.1935 0.2316 0.06499 0.084 0.1272 0.1714 0.1863 0.2614 0.11 0.1675 0.2095 0.3442 0.2957 0.5278 0.08853 0.1889 0.1629 0.3851 0.2212 0.5864 0.05819 0.2006 0.1005 0.4062 0.1236 0.6139 0.02254 0.2022 0.02704 0.4063 0.01046 0.6099-0.0334 0.4102-0.1522 0.8181-0.3577 1.176-0.2059 0.3588-0.499 0.6677-0.8374 0.9034-0.1683 0.1173-0.3479 0.217-0.5349 0.299-0.1922 0.085-0.3923 0.152-0.5961 0.202-0.2035 0.05-0.4106 0.084-0.6185 0.1024-0.2023 0.02-0.4052 0.02-0.6054 0.01-0.1427-0.01-0.284-0.023-0.4229-0.045-0.1311-0.021-0.2601-0.048-0.3829-0.082-0.118-0.033-0.2302-0.073-0.3425-0.1133-1.492-0.5917-3.084-1.119-4.778-1.497-1.695-0.3779-3.501-0.599-5.317-0.599-1.816 0-3.623 0.2213-5.317 0.599-1.694 0.3776-3.281 0.9024-4.778 1.497-0.1123 0.04-0.2245 0.08-0.3425 0.1134-0.1228 0.034-0.2518 0.061-0.3829 0.082-0.1389 0.022-0.2802 0.035-0.4229 0.045-0.2002 0.01-0.4031 0.01-0.6054-0.01-0.2079-0.018-0.4151-0.053-0.6185-0.1025-0.2038-0.05-0.4039-0.117-0.5961-0.202-0.187-0.082-0.3665-0.1816-0.5348-0.2989-0.3384-0.2358-0.6315-0.5446-0.8374-0.9034-0.2055-0.3581-0.3243-0.766-0.3577-1.176-0.01657-0.2035-0.01208-0.4077 0.01046-0.6098 0.02316-0.2077 0.06544-0.4133 0.1236-0.614 0.05834-0.2012 0.1327-0.3974 0.2212-0.5863 0.08611-0.1836 0.1856-0.3603 0.2957-0.5278 0.05913-0.09 0.1212-0.1774 0.1862-0.2614 0.06208-0.08 0.1268-0.1576 0.1936-0.2316 0.06432-0.071 0.1305-0.1396 0.1985-0.2026 0.06622-0.062 0.134-0.1176 0.2019-0.1746 1.176-0.9309 2.348-1.965 3.454-3.14 1.107-1.175 2.151-2.5 3.043-3.942 0.8922-1.442 1.624-2.991 2.178-4.54 0.5543-1.549 0.9391-3.096 1.214-4.604 0.1373-0.7539 0.2474-1.5 0.3374-2.237 0.09004-0.7362 0.1601-1.461 0.2158-2.189 0.05572-0.7284 0.09714-1.445 0.129-2.14 0.01593-0.3473 0.02947-0.6935 0.04103-1.05s0.02119-0.7231 0.02929-1.091 0.01461-0.7338 0.02001-1.079c0.0054-0.3451 0.0097-0.6689 0.0131-0.986 0.0034-0.3172 6e-3 -0.6323 0.0079-0.9742 2e-3 -0.3419 0.0033-0.7108 0.0043-1.098s0.0016-0.7899 2e-3 -1.18c4.18e-4 -0.3898 6.93e-4 -0.767 8.19e-4 -1.12 1.26e-4 -0.3535 1.62e-4 -0.6831 1.82e-4 -0.9937s1.8e-5 -0.6022 9.1e-5 -0.8957c7.3e-5 -0.4299 7.7e-5 -0.8591 0-1.341s-2.47e-4 -1.018-8.19e-4 -1.586c-6e-4 -0.568-0.0016-1.166-0.0035-1.708-2e-3 -0.5425-0.0049-1.019-0.0095-1.478-0.0047-0.4587-0.011-0.9265-0.02011-1.438-0.0091-0.5116-0.02089-1.051-0.03666-1.56-0.01577-0.509-0.03557-0.9896-0.06077-1.472-0.0252-0.4818-0.05585-0.9705-0.09379-1.459-0.0759-0.9775-0.1805-1.92-0.3327-2.832-0.1521-0.9123-0.3519-1.788-0.6234-2.597-0.2715-0.8089-0.6159-1.55-1.054-2.178s-0.9703-1.139-1.592-1.498c-0.6216-0.359-1.331-0.5652-2.093-0.6302-0.7624-0.065-1.576 0.01-2.412 0.1759-0.8355 0.1688-1.699 0.4365-2.561 0.7586-0.4311 0.161-0.864 0.3369-1.302 0.5265-0.4379 0.1897-0.8809 0.3932-1.321 0.6036-0.4404 0.2105-0.8743 0.4255-1.303 0.6441-0.4291 0.2186-0.8581 0.4435-1.309 0.6856-0.4509 0.2421-0.9241 0.5016-1.37 0.7484-0.4457 0.2467-0.8514 0.4736-1.251 0.6988-0.3995 0.2253-0.8162 0.4624-1.288 0.7328-0.4722 0.2704-0.9903 0.5684-1.482 0.8516-0.4918 0.2832-0.9548 0.5503-1.372 0.7911-0.4172 0.2407-0.7888 0.4552-1.161 0.6702-0.3724 0.2149-0.7438 0.4294-1.161 0.6703-0.4172 0.241-0.8803 0.5084-1.372 0.793-0.4918 0.2845-1.01 0.5848-1.482 0.8597-0.4722 0.2748-0.8889 0.5188-1.288 0.7547-0.3995 0.236-0.8052 0.4776-1.251 0.7454-0.4457 0.2678-0.9189 0.5545-1.37 0.833-0.4509 0.2785-0.8799 0.549-1.309 0.8258-0.4291 0.2768-0.8629 0.5627-1.303 0.8607-0.4404 0.2981-0.8835 0.6061-1.321 0.922-0.4379 0.3159-0.8708 0.6398-1.302 0.9766-0.8622 0.6734-1.726 1.403-2.561 2.198-0.8355 0.7959-1.65 1.664-2.412 2.609-0.7624 0.9455-1.471 1.97-2.093 3.047s-1.154 2.203-1.592 3.336c-0.4377 1.133-0.782 2.272-1.054 3.394s-0.4713 2.229-0.6234 3.317c-0.1521 1.088-0.2568 2.151-0.3327 3.216-0.03795 0.5325-0.06868 1.057-0.09388 1.568-0.0252 0.5109-0.04491 1.014-0.06068 1.542-0.01577 0.5272-0.02757 1.08-0.03666 1.602-0.00909 0.522-0.01545 0.9972-0.0201 1.461s-0.0076 0.9442-0.00955 1.489-0.00288 1.143-0.00346 1.712c-5.72e-4 0.5686-7.417e-4 1.104-8.187e-4 1.587-7.8e-5 0.4823-9.3e-5 0.9115-9.1e-5 1.342 2e-6 0.2935-2e-5 0.5851 0 0.8956 2.1e-5 0.3106 5.59e-5 0.6402 1.819e-4 0.9935 1.26e-4 0.3532 3.998e-4 0.7302 8.188e-4 1.12 4.2e-4 0.3893 1e-3 0.7909 2e-3 1.177 1e-3 0.3865 0.0024 0.7538 0.00437 1.093 0.00197 0.3397 0.0045 0.6518 0.00791 0.965s0.00769 0.6322 0.0131 0.971c0.00541 0.3389 0.01201 0.6973 0.0201 1.056 0.00809 0.3586 0.01764 0.7143 0.0292 1.057 0.01156 0.3429 0.0251 0.6735 0.04103 1.002 0.03186 0.6579 0.07337 1.326 0.1291 1.99s0.1257 1.308 0.2157 1.94c0.09003 0.6324 0.2002 1.252 0.3375 1.847 0.2746 1.191 0.6593 2.293 1.214 3.202 0.5543 0.9093 1.286 1.614 2.178 2.025 0.8922 0.4117 1.937 0.5315 3.043 0.4287 1.107-0.1027 2.278-0.4207 3.454-0.8477 0.06792-0.022 0.1359-0.044 0.2027-0.059 0.06858-0.016 0.136-0.029 0.2025-0.029h0.204c0.07015 0.01 0.1393 0.018 0.2077 0.034 0.1273 0.031 0.2523 0.078 0.3757 0.1403 0.1269 0.064 0.2521 0.1459 0.3771 0.2409 0.1247 0.095 0.2492 0.2044 0.3727 0.3274 0.1202 0.1198 0.2397 0.2524 0.3581 0.3972 0.2386 0.2917 0.4733 0.6326 0.68 0.99 0.2071 0.3581 0.3862 0.7327 0.5206 1.086 0.06685 0.1758 0.1227 0.3465 0.1667 0.5114 0.04529 0.1695 0.0782 0.3329 0.09852 0.4893 0.02028 0.1561 0.02795 0.3053 0.02065 0.4476-0.0071 0.1384-0.02839 0.2704-0.06568 0.396-0.02659 0.09-0.06131 0.1762-0.1049 0.2592-0.04115 0.079-0.09026 0.1544-0.1513 0.2264-0.05864 0.069-0.1283 0.1337-0.198 0.1997-0.9627 0.8087-1.819 1.661-2.462 2.568-0.6426 0.9069-1.061 1.871-1.151 2.849s0.1541 1.964 0.6645 2.898c0.5104 0.9347 1.271 1.818 2.168 2.653 0.4481 0.4172 0.9253 0.8198 1.427 1.213 0.5014 0.3934 1.033 0.7809 1.58 1.161 0.5468 0.38 1.097 0.7456 1.651 1.102 0.2771 0.1783 0.5583 0.3563 0.8511 0.5387 0.2928 0.1823 0.5973 0.3692 0.9038 0.5555 0.3065 0.1863 0.6122 0.3703 0.9015 0.5436 0.2893 0.1733 0.5621 0.3356 0.8313 0.495 0.2692 0.1593 0.5392 0.3181 0.8334 0.4903 0.2942 0.1721 0.6129 0.3576 0.9477 0.5521 0.3348 0.1944 0.6822 0.3957 1.019 0.5906 0.3367 0.1948 0.6626 0.3832 0.9681 0.5597 0.3055 0.1765 0.5906 0.3411 0.8593 0.4963 0.2687 0.1552 0.5212 0.3009 0.7753 0.4477 0.3724 0.2149 0.7439 0.4294 1.161 0.6702 0.4173 0.2408 0.8804 0.508 1.373 0.7915 0.4923 0.2836 1.011 0.5822 1.486 0.8536 0.4742 0.2715 0.8937 0.5104 1.298 0.7383 0.4041 0.228 0.8163 0.4585 1.271 0.7105 0.4548 0.252 0.9397 0.5184 1.406 0.7696 0.4666 0.2511 0.9155 0.4874 1.37 0.7206 0.4543 0.2331 0.9187 0.4659 1.397 0.6982 0.4784 0.2324 0.9667 0.462 1.459 0.6832 0.4926 0.2213 0.9895 0.4342 1.497 0.6391 1.014 0.4099 2.078 0.793 3.185 1.119s2.265 0.5968 3.466 0.7843c1.2 0.1874 2.442 0.2892 3.685 0.2892 1.243 0 2.485-0.1018 3.685-0.2893 1.2-0.1874 2.359-0.4587 3.466-0.7846 1.108-0.326 2.166-0.7062 3.184-1.118s1.991-0.8531 2.952-1.32c0.4801-0.2334 0.9493-0.4688 1.404-0.7024 0.4551-0.2337 0.9009-0.4682 1.365-0.7181 0.4645-0.25 0.9492-0.5162 1.406-0.7693 0.4566-0.2531 0.8714-0.4851 1.275-0.7131 0.4041-0.2279 0.8214-0.4654 1.294-0.7361 0.4727-0.2706 0.9916-0.569 1.484-0.8528 0.4927-0.2838 0.9566-0.5514 1.374-0.7925 0.4178-0.241 0.7894-0.4556 1.162-0.6714 0.2542-0.1477 0.5067-0.2934 0.7756-0.4487 0.2689-0.1553 0.5543-0.3201 0.8601-0.4968 0.3059-0.1767 0.6323-0.3654 0.9692-0.5604 0.3369-0.195 0.6843-0.3963 1.019-0.5903 0.3342-0.1941 0.6516-0.3789 0.9447-0.5504s0.5622-0.3298 0.8317-0.4893c0.2695-0.1595 0.5436-0.3227 0.8343-0.4967 0.2907-0.1741 0.5978-0.359 0.9042-0.5453 0.3065-0.1862 0.6097-0.3723 0.9009-0.5538 0.2912-0.1814 0.5707-0.3584 0.8476-0.5366 0.5538-0.3565 1.112-0.7267 1.659-1.107s1.07-0.7627 1.573-1.157c0.5026-0.3941 0.9838-0.799 1.431-1.216 0.8937-0.833 1.656-1.717 2.166-2.652 0.5102-0.9345 0.7543-1.92 0.6647-2.898s-0.5082-1.942-1.151-2.849c-0.6424-0.9069-1.504-1.762-2.462-2.568-0.06968-0.066-0.1393-0.1308-0.198-0.1998-0.06102-0.072-0.1101-0.1473-0.1513-0.2263-0.04359-0.083-0.0783-0.1693-0.1049-0.2593-0.03729-0.1256-0.05858-0.2576-0.06568-0.396-0.0073-0.1423 3.7e-4 -0.2914 0.02065-0.4475 0.02032-0.1564 0.05323-0.3198 0.09852-0.4893 0.04407-0.1649 0.09989-0.3356 0.1667-0.5115 0.1344-0.3535 0.3135-0.7282 0.5206-1.086 0.2067-0.3574 0.4414-0.6984 0.6801-0.9901 0.1184-0.1448 0.2378-0.2774 0.3581-0.3971 0.1236-0.123 0.2479-0.2325 0.3726-0.3275 0.125-0.095 0.2503-0.1769 0.3772-0.2409 0.1234-0.062 0.2484-0.1093 0.3757-0.1403 0.06842-0.016 0.1375-0.024 0.2077-0.034h0.204c0.06648 0 0.1339 0.013 0.2025 0.029 0.06682 0.015 0.1348 0.037 0.2027 0.059 1.258 0.4569 2.511 0.7882 3.686 0.8662 1.175 0.078 2.269-0.1123 3.178-0.6367 0.9081-0.5245 1.62-1.378 2.14-2.434 0.5201-1.056 0.8591-2.301 1.093-3.626 0.0213-0.093 0.0426-0.1863 0.0729-0.2713 0.0315-0.089 0.0728-0.1694 0.1203-0.2444 0.0504-0.08 0.1077-0.1527 0.172-0.2207 0.0901-0.095 0.1937-0.1802 0.31-0.2552 0.1196-0.077 0.2526-0.145 0.398-0.206 0.1456-0.061 0.3036-0.1135 0.473-0.1595 0.1649-0.044 0.3406-0.081 0.5264-0.1114 0.3735-0.06 0.7876-0.092 1.201-0.092 0.413 0 0.8257 0.033 1.198 0.094 0.1846 0.03 0.3593 0.068 0.5231 0.1117 0.1683 0.045 0.3252 0.099 0.4699 0.1591 0.1451 0.061 0.2779 0.1284 0.3972 0.2064 0.116 0.076 0.2192 0.1605 0.3092 0.2555 0.0484 0.051 0.0929 0.105 0.1332 0.163 0.0385 0.055 0.073 0.1138 0.1037 0.1758 0.0295 0.06 0.0555 0.123 0.0761 0.19 0.02 0.066 0.035 0.1352 0.05 0.2052 0.2182 1.238 0.5284 2.406 0.9927 3.416 0.4642 1.01 1.09 1.854 1.893 2.421s1.778 0.8492 2.843 0.8742c1.065 0.026 2.21-0.1916 3.381-0.5504 0.5854-0.1794 1.173-0.3912 1.764-0.6287s1.193-0.5039 1.795-0.7873c0.6025-0.2835 1.194-0.5772 1.78-0.8787 0.293-0.1508 0.5878-0.3053 0.8921-0.4677 0.3043-0.1623 0.6184-0.3326 0.933-0.5048 0.3146-0.1723 0.6269-0.345 0.9216-0.5088 0.2947-0.1639 0.5716-0.3189 0.8443-0.4724 0.2726-0.1534 0.5452-0.3078 0.8414-0.4765 0.2962-0.1687 0.6162-0.3519 0.952-0.5446s0.684-0.3929 1.021-0.587c0.3371-0.1942 0.6633-0.3822 0.9689-0.5585s0.5906-0.3408 0.8594-0.4959c0.2688-0.1552 0.5213-0.3009 0.7754-0.4476 0.3724-0.215 0.7438-0.4295 1.161-0.6704 0.4172-0.241 0.8803-0.5084 1.372-0.793 0.4918-0.2845 1.01-0.5848 1.482-0.8596 0.4722-0.2749 0.8889-0.5188 1.288-0.7548s0.8052-0.4776 1.251-0.7453c0.4457-0.2678 0.9189-0.5546 1.37-0.8331 0.4508-0.2785 0.8799-0.549 1.309-0.8258 0.4291-0.2768 0.8629-0.5626 1.303-0.8607 0.4404-0.2981 0.8834-0.6061 1.321-0.922 0.4379-0.3159 0.8708-0.6398 1.302-0.9765 0.8622-0.6735 1.726-1.403 2.561-2.198 0.8355-0.7959 1.65-1.664 2.412-2.609 0.7624-0.9456 1.471-1.97 2.093-3.047 0.6216-1.077 1.154-2.203 1.592-3.336 0.4377-1.133 0.7821-2.272 1.054-3.394 0.2715-1.122 0.4713-2.229 0.6234-3.317 0.1522-1.088 0.2568-2.151 0.3327-3.216 0.038-0.5326 0.0687-1.057 0.0939-1.568 0.0252-0.511 0.0449-1.014 0.0607-1.542s0.0277-1.08 0.0367-1.602c9e-3 -0.522 0.0151-0.9972 0.0201-1.461s8e-3 -0.9442 0.01-1.489c2e-3 -0.5448 3e-3 -1.143 4e-3 -1.712 5.8e-4 -0.5687 7.5e-4 -1.104 8.2e-4 -1.587 8e-5 -0.4824 3e-5 -0.9116-4.6e-4 -1.342-4.8e-4 -0.2935-4.3e-4 -0.585-4.5e-4 -0.8956s-7e-5 -0.6401-1.9e-4 -0.9934c-1.3e-4 -0.3533-3.9e-4 -0.7303-8.1e-4 -1.12 0-0.3894-9.1e-4 -0.7909-2e-3 -1.177-1e-3 -0.3864-2e-3 -0.7538-4e-3 -1.093s-5e-3 -0.6518-8e-3 -0.965-8e-3 -0.6321-0.0131-0.971c-5e-3 -0.3388-0.0121-0.6972-0.0201-1.056s-0.0177-0.7142-0.0293-1.057c-0.0116-0.343-0.0251-0.6736-0.041-1.002-0.0319-0.6579-0.0733-1.326-0.1291-1.99-0.0557-0.664-0.1257-1.308-0.2157-1.94-0.09-0.6323-0.2002-1.252-0.3375-1.847-0.2746-1.191-0.6593-2.293-1.214-3.202-0.5543-0.9092-1.286-1.613-2.178-2.025-0.8922-0.4117-1.937-0.5315-3.043-0.4287-1.107 0.1028-2.278 0.4207-3.454 0.8478-0.0912 0.028-0.1822 0.056-0.2712 0.072-0.0926 0.017-0.1829 0.018-0.2716 0.018-0.094 0-0.1861-0.017-0.277-0.039-0.1274-0.03-0.2524-0.078-0.3759-0.1411-0.1269-0.065-0.2521-0.1458-0.3772-0.2418-0.1253-0.096-0.2504-0.206-0.3745-0.33-0.1208-0.1206-0.2407-0.2543-0.3596-0.4001-0.239-0.2932-0.4738-0.6356-0.6804-0.9941-0.2061-0.3577-0.3841-0.7314-0.5174-1.084-0.0662-0.1749-0.1213-0.3446-0.1648-0.5086-0.0447-0.1685-0.0771-0.331-0.0971-0.4865-0.02-0.1559-0.028-0.3049-0.02-0.447 7e-3 -0.1382 0.0291-0.2699 0.0664-0.3954 0.02-0.068 0.0444-0.1328 0.0743-0.1968 0.0285-0.061 0.0619-0.1197 0.1002-0.1777 0.0369-0.055 0.0784-0.1089 0.1263-0.1609 0.0467-0.05 0.0995-0.098 0.1524-0.146 0.9627-0.8076 1.819-1.66 2.462-2.567 0.6426-0.907 1.061-1.871 1.15-2.849s-0.1541-1.964-0.6645-2.898c-0.5104-0.9347-1.271-1.818-2.168-2.653-0.4481-0.4172-0.9252-0.8198-1.427-1.213-0.5014-0.3935-1.033-0.781-1.58-1.161s-1.097-0.7456-1.651-1.102c-0.277-0.1784-0.5583-0.3564-0.8511-0.5387-0.2928-0.1824-0.5973-0.3693-0.9038-0.5556-0.3065-0.1863-0.6122-0.3703-0.9015-0.5436-0.2893-0.1732-0.5621-0.3356-0.8313-0.495-0.2692-0.1593-0.5391-0.3181-0.8334-0.4902-0.2942-0.1722-0.6129-0.3577-0.9477-0.5521-0.3348-0.1945-0.6822-0.3958-1.019-0.5906-0.3367-0.1949-0.6626-0.3833-0.9681-0.5598s-0.5906-0.3411-0.8593-0.4963c-0.2688-0.1551-0.5212-0.3009-0.7753-0.4476-0.3724-0.215-0.7439-0.4294-1.161-0.6703-0.4173-0.2408-0.8805-0.508-1.373-0.7915-0.4923-0.2836-1.011-0.5821-1.486-0.8536s-0.8937-0.5104-1.298-0.7383c-0.4041-0.2279-0.8163-0.4585-1.271-0.7105s-0.9397-0.5184-1.406-0.7695c-0.4666-0.2512-0.9155-0.4875-1.37-0.7206-0.4543-0.2332-0.9187-0.466-1.397-0.6983-0.4784-0.2323-0.9666-0.462-1.459-0.6832s-0.9895-0.4341-1.497-0.6391c-1.014-0.4099-2.078-0.793-3.185-1.119s-2.265-0.5968-3.466-0.7843c-1.2-0.1874-2.442-0.2892-3.685-0.2892zm-6.823 7.234 7.476 4.32 4.322-2.5 6.831 3.95-4.323 2.49 5.924 3.42 4.322-2.49 6.83 3.94-4.322 2.49 7.683 4.44-7.408 4.28-7.683-4.44-6.266 3.62 7.682 4.43-7.504 4.34-7.682-4.44-4.371 2.52-6.83-3.94 4.37-2.52-5.923-3.42-4.37 2.52-6.83-3.94 4.37-2.52-7.476-4.32 7.504-4.33 7.476 4.31 6.266-3.61-7.476-4.32zm6.899 12.54-6.267 3.62 5.923 3.42 6.267-3.62zm-38.06 23.31 8.926 5.15v30.98l15.63 9.02v9.14l-24.55-14.17zm-33.44 3.517c0.1765 0 0.3507 0.014 0.522 0.032 0.3319 0.034 0.6531 0.095 0.9621 0.1826 0.299 0.084 0.5866 0.1929 0.8589 0.3294 0.2654 0.133 0.5164 0.2925 0.749 0.4801 0.2278 0.1838 0.4381 0.3947 0.6322 0.627 0.1944 0.2325 0.3727 0.4866 0.5291 0.7657 0.1588 0.2836 0.295 0.5929 0.4123 0.9206 0.1211 0.3384 0.222 0.6962 0.3024 1.071 0.08342 0.3891 0.1448 0.7966 0.1855 1.218 0.04268 0.442 0.06264 0.8994 0.08251 1.357l-9.022 5.212c-0.02104-0.309-0.04209-0.6196-0.1031-0.8989-0.05649-0.2588-0.1473-0.4906-0.268-0.6864-0.1174-0.1906-0.2633-0.3471-0.4329-0.4643-0.1774-0.1225-0.3808-0.202-0.5979-0.25-0.2334-0.048-0.4825-0.067-0.7421-0.048-0.2791 0.021-0.5702 0.082-0.8658 0.1666-0.3278 0.094-0.661 0.216-0.9964 0.3689-0.3738 0.1704-0.7504 0.3787-1.127 0.5872-0.3304 0.2002-0.6609 0.4003-0.9895 0.6269-0.2934 0.2024-0.5855 0.426-0.8728 0.6705-0.2597 0.221-0.5156 0.4592-0.7627 0.718-0.227 0.2377-0.4465 0.4929-0.6528 0.7657-0.1893 0.2503-0.3674 0.5156-0.5223 0.7935-0.1459 0.2618-0.2711 0.5349-0.3711 0.8093-0.1002 0.2753-0.175 0.552-0.2199 0.8173-0.04822 0.2851-0.06191 0.5572-0.0756 0.829 0.01093 0.222 0.02185 0.4442 0.05495 0.6505 0.03032 0.189 0.07926 0.3646 0.1512 0.5158 0.06766 0.1422 0.1556 0.2631 0.2611 0.3571 0.1062 0.095 0.2301 0.1633 0.3642 0.2103 0.1459 0.051 0.304 0.076 0.4672 0.087 0.1844 0.013 0.3753 0.01 0.5704-0.012 0.2223-0.022 0.4501-0.063 0.6803-0.115 0.2563-0.058 0.5157-0.1302 0.7765-0.2102 0.2918-0.09 0.5855-0.1907 0.8795-0.2935 0.3249-0.1136 0.6502-0.2298 0.9758-0.3491 0.3545-0.1298 0.7095-0.2633 1.065-0.4006 0.389-0.1503 0.7786-0.3052 1.168-0.4599 0.5624-0.2101 1.125-0.4204 1.684-0.6066 0.5354-0.1784 1.067-0.3347 1.594-0.468 0.5016-0.1269 0.9987-0.2333 1.491-0.3213 0.473-0.085 0.9418-0.1523 1.402-0.1903 0.437-0.036 0.866-0.044 1.278-0.01 0.395 0.034 0.7746 0.1096 1.134 0.2263 0.3479 0.1129 0.6768 0.2649 0.9826 0.4563 0.3023 0.1893 0.582 0.4172 0.8315 0.6865 0.1272 0.1373 0.2466 0.2854 0.3573 0.4444 0.1127 0.1618 0.2163 0.3349 0.3092 0.5198 0.097 0.1931 0.1823 0.3989 0.2612 0.611 0.08172 0.2196 0.1567 0.4457 0.2199 0.6824 0.06655 0.2493 0.12 0.5103 0.1649 0.7777 0.04715 0.2808 0.08483 0.5688 0.1168 0.861 0.0334 0.3051 0.06056 0.6149 0.0756 0.9323 0.01592 0.3368 0.01835 0.6822 0.02065 1.026-0.0044 0.3455-0.0088 0.6922-0.02756 1.046-0.01798 0.3394-0.04917 0.6856-0.08933 1.036-0.03892 0.339-0.08624 0.6815-0.1443 1.028-0.05604 0.3341-0.122 0.6715-0.1992 1.012-0.07579 0.3338-0.1624 0.6701-0.2612 1.008-0.09686 0.3312-0.2054 0.6636-0.3229 0.9958-0.1167 0.3299-0.2424 0.6596-0.378 0.9879-0.1346 0.3259-0.2789 0.6504-0.4328 0.972-0.154 0.3218-0.3175 0.6406-0.4879 0.9561-0.1718 0.3184-0.3506 0.6334-0.536 0.9443-0.1857 0.3115-0.378 0.6189-0.5772 0.9204-0.2021 0.306-0.4114 0.6059-0.6253 0.9006-0.2194 0.3022-0.4438 0.599-0.6735 0.8886-0.2355 0.2971-0.4764 0.5866-0.7215 0.8689-0.2525 0.2906-0.5094 0.5735-0.7696 0.8489-0.2671 0.2827-0.5377 0.5574-0.8109 0.8252-0.5723 0.561-1.156 1.091-1.745 1.595-0.6219 0.5311-1.25 1.032-1.883 1.508-0.6701 0.5037-1.344 0.9785-2.02 1.42-0.7203 0.4707-1.442 0.9038-2.165 1.337-0.5775 0.3235-1.155 0.647-1.732 0.9441-0.5419 0.2793-1.083 0.5354-1.622 0.7696-0.5088 0.2212-1.016 0.4229-1.519 0.599-0.4738 0.1658-0.9442 0.3088-1.409 0.4243-0.4411 0.1097-0.8768 0.1949-1.306 0.2539-0.4087 0.056-0.811 0.091-1.203 0.091-0.3777 0-0.7454-0.027-1.099-0.087-0.3428-0.058-0.6727-0.1471-0.9895-0.2619-0.3071-0.1114-0.6018-0.2475-0.8796-0.4128-0.2677-0.1593-0.5197-0.3457-0.7559-0.5555-0.2322-0.2062-0.4492-0.4351-0.6459-0.6904-0.1946-0.2525-0.3695-0.5309-0.5223-0.8332-0.1535-0.3037-0.2848-0.6316-0.3985-0.9761-0.1156-0.3502-0.2131-0.7176-0.2886-1.103-0.07843-0.4-0.1334-0.8193-0.1649-1.254-0.03277-0.4508-0.04042-0.9178-0.04812-1.385l9.023-5.21c0.0076 0.2059 0.01518 0.4109 0.0343 0.608 0.01787 0.1842 0.04584 0.3616 0.08251 0.5316 0.035 0.1623 0.07794 0.3179 0.1305 0.4642 0.05077 0.1413 0.1105 0.2738 0.1787 0.3968 0.06536 0.118 0.1384 0.2274 0.2199 0.3254 0.081 0.098 0.1703 0.1849 0.268 0.2579 0.09776 0.073 0.204 0.1335 0.3161 0.1825 0.1155 0.05 0.2373 0.089 0.3642 0.1151 0.2643 0.055 0.5504 0.061 0.8452 0.036 0.3186-0.027 0.6474-0.09 0.9827-0.1864 0.3676-0.1054 0.743-0.2508 1.12-0.4244 0.4178-0.1924 0.8377-0.4195 1.258-0.6467 0.4015-0.2427 0.803-0.4853 1.203-0.7578 0.3484-0.2375 0.6953-0.4978 1.038-0.7815 0.3014-0.2497 0.5991-0.5175 0.8864-0.8132 0.2523-0.2597 0.4965-0.5408 0.7215-0.8451 0.204-0.2758 0.3923-0.5707 0.5566-0.8767 0.1567-0.2918 0.2916-0.5938 0.3985-0.8967 0.111-0.3143 0.1919-0.6297 0.2405-0.9323 0.05353-0.3331 0.06795-0.6506 0.08242-0.9681-0.01079-0.257-0.02159-0.514-0.06186-0.7498-0.03651-0.2137-0.09723-0.4099-0.1855-0.5753-0.08284-0.1552-0.1899-0.2829-0.3161-0.3809-0.1277-0.099-0.275-0.1663-0.4329-0.2103-0.173-0.048-0.3586-0.072-0.5497-0.072-0.2097 0-0.426 0.012-0.6459 0.04-0.2478 0.032-0.5002 0.079-0.7559 0.1428-0.2811 0.07-0.5663 0.1598-0.8521 0.2538-0.3133 0.1035-0.6274 0.2129-0.9414 0.3213-0.3391 0.1171-0.6781 0.233-1.017 0.3491-0.364 0.1246-0.7281 0.2494-1.093 0.3768-0.3914 0.1368-0.7832 0.2766-1.175 0.4165-0.4428 0.1509-0.8856 0.3018-1.326 0.4403-0.4193 0.1318-0.8366 0.2525-1.251 0.357-0.3927 0.099-0.7824 0.1838-1.168 0.2538-0.3655 0.066-0.7276 0.1196-1.086 0.1586-0.3432 0.038-0.6827 0.061-1.017 0.071-0.3173 0.01-0.63 0-0.9345-0.024-0.2908-0.025-0.5741-0.07-0.852-0.127-0.266-0.055-0.527-0.1203-0.7765-0.2103-0.2406-0.087-0.4705-0.1947-0.6872-0.3254-0.2124-0.1282-0.412-0.2781-0.5978-0.4484-0.1847-0.1694-0.3557-0.3591-0.5085-0.5714-0.1546-0.2148-0.2906-0.4529-0.4123-0.7063-0.1236-0.2575-0.2326-0.5309-0.323-0.8213-0.09348-0.3001-0.1672-0.6185-0.2267-0.9482-0.0626-0.3473-0.1093-0.7072-0.1375-1.079-0.02949-0.3892-0.03882-0.7918-0.04812-1.194 5e-3 -0.3441 0.01-0.6884 0.02747-1.039 0.01674-0.3359 0.04496-0.6778 0.08251-1.024 0.03636-0.3349 0.08154-0.6734 0.1375-1.016 0.05394-0.3301 0.1179-0.6637 0.1924-0.9998 0.07223-0.3259 0.1543-0.6542 0.2473-0.9839 0.09078-0.3217 0.192-0.6448 0.3024-0.968 0.1095-0.3205 0.228-0.641 0.3572-0.9602 0.1281-0.3163 0.2667-0.6312 0.4124-0.9442 0.1458-0.3133 0.2987-0.6247 0.4604-0.9323 0.1618-0.3078 0.3324-0.6118 0.5084-0.9125 0.1773-0.3029 0.3601-0.6024 0.5497-0.8966 0.1909-0.2962 0.3887-0.5869 0.591-0.8728 0.2059-0.291 0.4166-0.5771 0.6322-0.857 0.222-0.2882 0.449-0.5699 0.6803-0.845 0.2363-0.2811 0.4769-0.5553 0.7215-0.8212 0.2529-0.2749 0.5102-0.5409 0.7697-0.8014 0.5385-0.5404 1.087-1.057 1.642-1.543 0.5842-0.5115 1.177-0.99 1.773-1.444 0.6289-0.4789 1.262-0.9306 1.897-1.349 0.6744-0.4443 1.351-0.8509 2.027-1.258 0.5454-0.3069 1.091-0.6138 1.635-0.8965 0.5165-0.2682 1.032-0.5145 1.546-0.7418 0.4831-0.2137 0.9645-0.4105 1.443-0.5871 0.4546-0.1677 0.9068-0.3171 1.354-0.4402 0.4221-0.1163 0.8395-0.2087 1.251-0.2777 0.3913-0.065 0.7769-0.1088 1.154-0.1268 0.1807-0.01 0.3596-0.011 0.5362-0.01zm104.9 0.2269c0.2088 0 0.4143 0 0.6156 0.022 0.3827 0.035 0.7501 0.1101 1.099 0.2223 0.3397 0.109 0.6624 0.2529 0.962 0.4365 0.2957 0.1811 0.5689 0.4009 0.8177 0.6547 0.124 0.1265 0.242 0.2615 0.3504 0.4087 0.1092 0.1483 0.2088 0.3089 0.3024 0.4761 0.0936 0.1674 0.1813 0.3414 0.2611 0.5238 0.08 0.1827 0.152 0.374 0.213 0.5753 0.0627 0.2067 0.1136 0.4241 0.158 0.6467 0.0456 0.2288 0.0842 0.4633 0.1168 0.7023 0.0334 0.2441 0.0606 0.4931 0.0756 0.7498 0.0156 0.2656 0.0187 0.5395 0.0206 0.8145-3e-3 0.265-6e-3 0.529-0.0206 0.7986-0.0136 0.2599-0.0373 0.5251-0.0687 0.7935-0.0308 0.2628-0.0689 0.5286-0.1168 0.7974-0.0467 0.2621-0.1027 0.5271-0.1649 0.7935-0.0615 0.2632-0.1291 0.5278-0.2061 0.7935-0.0761 0.2625-0.1614 0.5261-0.2543 0.7895-0.0934 0.2649-0.1944 0.5297-0.3023 0.7935-0.1076 0.2631-0.2221 0.5252-0.3436 0.7855-0.2381 0.5104-0.5032 1.014-0.7903 1.504-0.2817 0.4807-0.5846 0.9484-0.9071 1.396-0.3212 0.4463-0.6618 0.8731-1.017 1.27-0.3653 0.4076-0.7461 0.783-1.127 1.158v0.381c0.2323-0.083 0.4646-0.166 0.6939-0.233 0.2229-0.065 0.443-0.1137 0.6597-0.1507 0.2095-0.036 0.4158-0.06 0.6184-0.071 0.2019-0.012 0.4001-0.011 0.591 0.01 0.1869 0.018 0.367 0.054 0.5428 0.099 0.1774 0.045 0.3506 0.1 0.5154 0.1707 0.166 0.071 0.3235 0.1589 0.4741 0.2579 0.1544 0.1015 0.3016 0.2148 0.4398 0.3413 0.1389 0.127 0.2687 0.2672 0.3916 0.4166 0.1224 0.1487 0.2379 0.3066 0.3436 0.4761 0.1054 0.1693 0.2012 0.3502 0.2886 0.5396 0.0892 0.1932 0.17 0.3952 0.2404 0.6071 0.0721 0.2168 0.1333 0.4439 0.1856 0.6785 0.0528 0.2371 0.0964 0.4819 0.1305 0.734 0.0353 0.2613 0.0602 0.5303 0.0756 0.8054 0.016 0.2866 0.0215 0.5797 0.0275 0.8718-7e-3 0.3043-0.0132 0.6097-0.0275 0.9193-0.0138 0.2998-0.0348 0.6035-0.0687 0.9126-0.0334 0.304-0.0793 0.6133-0.1305 0.9244-0.0499 0.3034-0.1047 0.6084-0.1718 0.9165-0.066 0.3033-0.1439 0.6095-0.2267 0.9164-0.0822 0.3048-0.1691 0.6104-0.268 0.9165-0.0999 0.3092-0.212 0.6191-0.3299 0.9284-0.1172 0.3076-0.2401 0.6147-0.3711 0.9204-0.1317 0.3073-0.2716 0.6132-0.4192 0.9165-0.1462 0.3003-0.2999 0.5981-0.4604 0.8927-0.1632 0.2995-0.3334 0.5956-0.5085 0.8886-0.1754 0.2936-0.3558 0.584-0.5428 0.8689-0.191 0.2909-0.3889 0.5761-0.591 0.8569-0.2084 0.2897-0.4213 0.5746-0.6391 0.853-0.2201 0.2812-0.4453 0.5557-0.6735 0.8252-0.237 0.2799-0.4773 0.5544-0.7215 0.8212-0.2506 0.2737-0.5053 0.5393-0.7628 0.7974-0.2631 0.2637-0.5291 0.5196-0.7971 0.7696-0.2773 0.2587-0.5566 0.5111-0.8383 0.7538-0.2888 0.2487-0.5802 0.4871-0.8728 0.718-0.3034 0.2395-0.6082 0.4708-0.9139 0.6942-0.3152 0.2303-0.6314 0.4521-0.9483 0.6665-0.3293 0.2228-0.6592 0.4376-0.9895 0.6426-0.3411 0.2119-0.6826 0.4134-1.024 0.6149-0.6147 0.3372-1.229 0.6745-1.842 0.9679-0.5783 0.2772-1.154 0.5154-1.725 0.718-0.5449 0.1935-1.085 0.3546-1.615 0.472-0.5072 0.1123-1.005 0.1841-1.491 0.2181-0.2374 0.016-0.4719 0.026-0.7009 0.016-0.2222-0.01-0.4394-0.029-0.6528-0.06-0.2103-0.03-0.4171-0.069-0.6184-0.1191-0.1977-0.05-0.3902-0.1106-0.5772-0.1826-0.1846-0.071-0.3639-0.152-0.536-0.246-0.1719-0.094-0.3366-0.2005-0.4948-0.3175-0.1578-0.1167-0.3091-0.2437-0.4535-0.3809-0.1449-0.1376-0.2828-0.2854-0.4123-0.4444-0.13-0.1596-0.2516-0.3305-0.3642-0.5118-0.1139-0.1833-0.2187-0.3772-0.316-0.5793-0.0981-0.2039-0.1884-0.4161-0.268-0.6388-0.0812-0.2272-0.1512-0.4651-0.213-0.7102-0.0635-0.2521-0.1182-0.5117-0.1649-0.7777-0.0478-0.2723-0.0872-0.5513-0.1168-0.8371-0.0307-0.2961-0.0511-0.5995-0.0619-0.9086-0.0118-0.3213-0.0127-0.6487-0.0137-0.9753l8.411-4.858c0.0195 0.3313 0.0389 0.6609 0.0961 0.9617 0.0523 0.2748 0.1362 0.5255 0.2474 0.746 0.1056 0.2091 0.2358 0.391 0.3916 0.5356 0.1579 0.1466 0.3421 0.2544 0.5429 0.3294 0.2063 0.077 0.4302 0.113 0.6665 0.123 0.2436 0.01 0.5002-0.026 0.7627-0.083 0.2786-0.06 0.5638-0.1482 0.8521-0.2697 0.3136-0.1322 0.6309-0.3041 0.9483-0.4762 0.2966-0.1837 0.5931-0.3674 0.8864-0.5832 0.2723-0.2004 0.5419-0.4286 0.804-0.6784 0.2465-0.2349 0.4864-0.4889 0.7147-0.7617 0.2259-0.27 0.4405-0.5585 0.6391-0.8609 0.1922-0.2927 0.3693-0.5985 0.5222-0.9125 0.1471-0.302 0.2717-0.6116 0.3711-0.9204 0.1003-0.3114 0.1751-0.6219 0.22-0.9204 0.0481-0.32 0.0618-0.6262 0.0757-0.9324v-0.9916c-0.011-0.3146-0.0221-0.6275-0.0689-0.9142-0.0422-0.2584-0.1136-0.4955-0.213-0.7023-0.0924-0.1922-0.209-0.3583-0.3505-0.4881-0.1408-0.1292-0.3063-0.2227-0.4879-0.2817-0.1892-0.062-0.3958-0.083-0.6116-0.083-0.2272 0-0.4646 0.038-0.7078 0.099-0.2697 0.068-0.5463 0.1688-0.8246 0.2935-0.3057 0.1369-0.6133 0.3025-0.9208 0.4683l-4.082 2.36v-7.11l3.278-1.898c0.3216-0.1936 0.6432-0.3892 0.962-0.6169 0.2876-0.2054 0.5728-0.437 0.8521-0.6903 0.255-0.2313 0.5051-0.4806 0.7421-0.7537 0.2214-0.2552 0.4314-0.5311 0.6252-0.8213 0.1842-0.2757 0.3539-0.5643 0.5017-0.8609 0.14-0.2808 0.2605-0.5687 0.3573-0.8569s0.17-0.5766 0.213-0.853c0.0458-0.2947 0.0573-0.5759 0.0686-0.857v-1.052c-0.01-0.2757-0.0194-0.5496-0.0617-0.7993-0.0396-0.233-0.1075-0.445-0.1992-0.6308-0.0865-0.1753-0.1942-0.3272-0.323-0.4484-0.1336-0.1256-0.29-0.2177-0.4604-0.2817-0.175-0.065-0.3646-0.1002-0.5635-0.1112-0.202-0.011-0.4134 0-0.6322 0.048-0.2344 0.047-0.4771 0.1288-0.7215 0.234-0.2621 0.1128-0.5262 0.2528-0.7903 0.3925-0.2874 0.1755-0.5749 0.3512-0.859 0.5592-0.2652 0.1941-0.5276 0.4165-0.7834 0.6585-0.2393 0.2264-0.4729 0.47-0.694 0.7339-0.217 0.259-0.422 0.5374-0.6116 0.8292-0.1886 0.2903-0.362 0.5937-0.5085 0.9045-0.1519 0.322-0.275 0.6519-0.3779 0.98-0.1127 0.3592-0.2011 0.7162-0.2612 1.063-0.0671 0.3878-0.0987 0.7632-0.1306 1.139l-8.266 4.77c0.0166-0.5021 0.0334-1.004 0.0754-1.519 0.0399-0.4891 0.1027-0.9891 0.1856-1.496 0.0794-0.4851 0.1772-0.9763 0.2955-1.472 0.1134-0.4756 0.2456-0.9552 0.3985-1.436 0.1497-0.4708 0.3192-0.9429 0.5084-1.412 0.1879-0.4663 0.3952-0.93 0.6185-1.389 0.2241-0.4604 0.4642-0.9156 0.7215-1.361 0.2618-0.4531 0.5414-0.8959 0.8315-1.329 0.296-0.4421 0.603-0.8743 0.9208-1.293 0.3221-0.4247 0.6553-0.8359 0.9964-1.234 0.3472-0.405 0.7026-0.7962 1.065-1.17 0.3761-0.3882 0.7599-0.7582 1.148-1.115 0.3991-0.3672 0.8024-0.7203 1.209-1.055 0.4273-0.3516 0.8586-0.6832 1.292-0.9997 0.4519-0.33 0.9058-0.6435 1.361-0.9362 0.4781-0.3076 0.9572-0.5921 1.436-0.8767 0.562-0.3111 1.124-0.6222 1.683-0.8925 0.5274-0.2548 1.053-0.4733 1.574-0.6624 0.4981-0.1809 0.9923-0.335 1.477-0.4482 0.4646-0.1085 0.9209-0.1791 1.367-0.2181 0.2142-0.019 0.4263-0.03 0.6351-0.032zm-86.1 53.98c0.4844 0.01 0.9681 0.029 1.45 0.06 0.4858 0.03 0.9697 0.071 1.45 0.123 0.485 0.053 0.9662 0.1164 1.443 0.1904 0.486 0.075 0.9673 0.1599 1.443 0.2539 0.4828 0.096 0.9597 0.2017 1.429 0.3173 0.4789 0.1179 0.9503 0.2459 1.416 0.3808 0.4717 0.1368 0.937 0.2808 1.395 0.4324 0.471 0.156 0.9339 0.3201 1.388 0.4919 0.4652 0.176 0.9212 0.3599 1.367 0.5514 0.4583 0.1967 0.9062 0.4012 1.347 0.6109 0.4561 0.2171 0.9045 0.4398 1.34 0.6704 0.4464 0.2364 0.8794 0.4812 1.312 0.7257l0.2886 0.1689c0.474 0.2811 0.948 0.5629 1.409 0.8521 0.4397 0.2759 0.8672 0.5585 1.278 0.8489 0.3949 0.279 0.7745 0.5651 1.141 0.8568 0.352 0.2804 0.6916 0.5659 1.017 0.8569 0.3116 0.2786 0.6101 0.5622 0.8864 0.8529 0.2662 0.2799 0.5118 0.5663 0.7421 0.8568 0.2232 0.2815 0.4321 0.5667 0.6185 0.8569 0.1809 0.2815 0.3407 0.5676 0.481 0.8568 0.1372 0.283 0.2557 0.5689 0.3573 0.8569 0.09925 0.2812 0.1825 0.5643 0.2474 0.8489 0.06437 0.2818 0.1108 0.5651 0.1374 0.8489 0.02615 0.2787 0.03292 0.558 0.02065 0.837-0.01235 0.281-0.04408 0.5616-0.09625 0.841-0.05188 0.2778-0.124 0.5544-0.213 0.8291-0.09022 0.2785-0.1977 0.5551-0.3229 0.8291-0.1265 0.2767-0.271 0.5507-0.4329 0.8211-0.1644 0.2746-0.3469 0.5456-0.5429 0.8132-0.1992 0.272-0.4124 0.5406-0.6391 0.8053-0.2311 0.27-0.4762 0.5359-0.7352 0.7974-0.2629 0.2654-0.5402 0.5261-0.8315 0.7814-0.3003 0.2633-0.6155 0.5208-0.9415 0.7736-0.3352 0.2599-0.6817 0.5149-1.038 0.7656-0.3645 0.2567-0.7389 0.5089-1.127 0.7537-0.4024 0.2539-0.8196 0.4998-1.237 0.7458l-14.58 8.41-34.74-20.05 14.58-8.418c0.4766-0.2656 0.9532-0.5328 1.443-0.7917 0.467-0.2469 0.9462-0.4863 1.436-0.718 0.4725-0.2235 0.9552-0.4399 1.45-0.6467 0.473-0.1976 0.9571-0.3863 1.45-0.5672 0.4768-0.175 0.9618-0.3426 1.457-0.4998 0.4785-0.152 0.9663-0.2943 1.464-0.4245 0.48-0.1257 0.9687-0.2402 1.464-0.3451 0.4843-0.1027 0.9744-0.1967 1.471-0.2777 0.4852-0.08 0.9762-0.1473 1.471-0.2063 0.4871-0.058 0.9775-0.1058 1.471-0.1428 0.4858-0.036 0.9742-0.061 1.464-0.075 0.4852-0.01 0.9713-0.02 1.457-0.01zm-2.302 6.816c-0.3212 0-0.643 0-0.962 0.024-0.3216 0.021-0.6403 0.055-0.9551 0.099-0.3258 0.045-0.6472 0.1006-0.9621 0.1666-0.3281 0.069-0.6491 0.149-0.962 0.238-0.332 0.095-0.6549 0.2-0.9688 0.3134-0.3297 0.1191-0.6495 0.2471-0.9621 0.3808-0.3353 0.1434-0.6625 0.2934-0.9757 0.4522-0.3334 0.1691-0.6511 0.3484-0.9688 0.5276l-5.655 3.27 19.79 11.42 5.655-3.26c0.3058-0.1811 0.6115-0.362 0.9002-0.5517 0.2731-0.1795 0.5309-0.3669 0.7765-0.5593 0.2288-0.1793 0.447-0.363 0.6528-0.5514 0.1954-0.179 0.3795-0.3622 0.5428-0.5514 0.1556-0.1803 0.2922-0.3662 0.4123-0.5554 0.1147-0.1808 0.2143-0.3646 0.2955-0.5514 0.07945-0.1828 0.1413-0.3683 0.1787-0.5554 0.03655-0.1828 0.04982-0.3671 0.04812-0.5514-0.0016-0.183-0.01793-0.3659-0.05495-0.5474-0.03699-0.1813-0.09467-0.3613-0.1649-0.5395-0.07024-0.1782-0.1531-0.3546-0.2543-0.5276-0.1036-0.1771-0.2264-0.3504-0.3642-0.5197-0.1413-0.1735-0.2984-0.3426-0.4673-0.5077-0.1752-0.1712-0.363-0.3381-0.5635-0.4998-0.2108-0.1701-0.4356-0.3344-0.6735-0.4919-0.2471-0.1636-0.5084-0.3199-0.7696-0.4795l-5.497-3.174c-0.268-0.1502-0.5361-0.3-0.8177-0.4408-0.2687-0.1344-0.5498-0.2606-0.8384-0.3808-0.2763-0.1152-0.5594-0.2248-0.852-0.3253-0.2827-0.097-0.5742-0.1858-0.8727-0.2658-0.2938-0.079-0.5944-0.1492-0.9002-0.2102-0.3-0.06-0.605-0.1118-0.9139-0.1548-0.306-0.042-0.6157-0.076-0.9277-0.099-0.3144-0.024-0.6311-0.04-0.9483-0.04z" vector-effect="non-scaling-stroke" style="-inkscape-stroke:hairline"/></svg>
